<svg xmlns="http://www.w3.org/2000/svg" viewBox="0 0 409.98 393.21"><title>add-member</title><path class="background" d="M197.6 212.4c40.7 0 73.7-40.8 73.7-91s-33.1-91-73.8-91-73.7 40.8-73.7 91 33.2 91 73.8 91z" fill="none"/><path class="lines" d="M309.3 241.9c-16.26-10.85-21.1-14.4-48.9-21.1 25.8-22.3 42.5-58.1 42.5-98.3C302.9 55 255.7 0 197.6 0S92.3 54.9 92.3 122.5c0 40.2 16.7 75.9 42.5 98.3-27.8 6.7-53.4 17.9-74.9 33.1C21.3 281.1 0 317.9 0 357.4a15.83 15.83 0 0 0 15.8 15.8h257.6c-30.53-36.33-31.87-103 35.9-131.3zm-85.1 99.8H123.9v-28.2a15.8 15.8 0 0 0-31.6 0v28.2l-59 1c4.9-23.1 20.4-45.7 44.9-63 31.7-22.4 74.1-34.7 119.5-34.7 36.33 0 42.73 5.76 46.4 8.13-1.9 2.32-17.9 20.76-21.9 42.07-5.22 27.81 2 46.5 2 46.5zM123.9 122.5c0-50.2 33.1-91 73.7-91s73.8 40.8 73.8 91-33.1 91-73.7 91-73.8-40.8-73.8-91z" fill="#292827"/><path class="lines" d="M335.82 244.9a74.16 74.16 0 1 0 74.16 74.16 74.16 74.16 0 0 0-74.16-74.16zm32.44 86.88h-19.71v19.72a12.725 12.725 0 1 1-25.45 0v-19.72h-19.72a12.725 12.725 0 0 1 0-25.45h19.72v-19.72a12.725 12.725 0 1 1 25.45 0v19.72h19.72a12.725 12.725 0 0 1 0 25.45z" fill="#292827"/></svg>