<svg id="Capa_1" xmlns="http://www.w3.org/2000/svg" viewBox="0 0 440.7 440.7"><style>.st0{fill:none}.st1{fill:#06baff}.st2{fill:#292827}</style><path class="st0" d="M157.2 112.9v126.7c14.9 1.7 43.5 5.8 77.3 14.1 54.7 13.6 99.4 32.4 133.5 56.3V41.8c-34 23.9-78.8 42.9-133.6 56.7-33.7 8.4-62.2 12.6-77.2 14.4zM24 177.2c.4 27.8 17.6 51.3 40.6 58.8V116.3c-23.8 7.6-41 32.1-40.6 60.9z"/><path class="st1" d="M133.2 113.9H88.6v124.5h44.6zM212.1 376.6l-31.8-109.5c-19.7-3.2-33.1-4.5-35.5-4.7h-22.6l37.7 129.7c0 .1.1.2.1.3 4.5 14 19.6 22 33.7 17.8 14.1-4.2 22.4-19.1 18.6-33.3-.2 0-.2-.1-.2-.3z"/><path class="st2" d="M422.2 131.3c-8.5-8.2-19-13.4-30.2-15V17.2c0-4.7-2.8-9-7-10.9-4.3-1.9-9.3-1.2-12.9 1.9C298.5 72.6 164 88.2 146 90H78.7C34.6 90.7-.7 130 0 177.5c.4 22.6 8.8 43.8 23.7 59.8 15.1 16.2 35.2 25.1 56.6 25.1h16.8L137 399.5c.1.4.2.7.4 1 4.2 12.5 12.9 22.7 24.6 28.9 7.5 4 15.7 6 24 6 4.9 0 9.8-.7 14.6-2.1 12.9-3.8 23.7-12.4 30.2-24.2 6.4-11.6 8.1-24.9 4.9-37.7-.1-.3-.1-.6-.2-.9L206.9 272c50.1 10.5 119.5 31.4 165.4 71.6 2.2 2 5.1 3 7.9 3 1.7 0 3.4-.4 5-1.1 4.3-1.9 7-6.2 7-10.9v-99.5c27.8-3.9 49.1-29.6 48.7-60.3-.5-16.6-7.2-32.4-18.7-43.5zm-228.6 279c-14.1 4.2-29.2-3.8-33.7-17.8 0-.1-.1-.2-.1-.3l-37.7-129.7h22.6c2.5.2 15.9 1.5 35.5 4.7L212 376.7c0 .1.1.3.1.4 3.9 14.1-4.4 29.1-18.5 33.2zm-105-296.4h44.6v124.5H88.6V113.9zm-24 122c-23-7.5-40.1-31-40.6-58.8-.5-28.7 16.8-53.3 40.6-60.8v119.6zM368 310c-34-23.8-78.8-42.7-133.5-56.3-33.8-8.4-62.4-12.4-77.3-14.1V112.9c15-1.8 43.6-6 77.2-14.5 54.7-13.8 99.5-32.8 133.6-56.7V310zm24-99.3v-70c4.9 1.3 9.6 4 13.5 7.8 6.9 6.7 11 16.4 11.2 26.6.2 17.3-10.4 31.9-24.7 35.6z"/></svg>