<svg id="Capa_1" xmlns="http://www.w3.org/2000/svg" viewBox="0 0 423.3 423.3"><style>.st0{fill:none}.st1{fill:#06baff}.st2{fill:#231f20}.st3{fill:#292827}</style><path class="st0" d="M186.9 343.1l-39.4 11.4h146.7c6.6 0 12 5.4 12 12s-5.4 12-12 12H66.5c-.6 0-1.3-.1-1.9-.2-.6.1-1.3.2-1.9.2-3 0-5.9-1.1-8.2-3.2-3.1-2.9-4.4-7.2-3.6-11.3l27.9-130.6c.5-2.3 1.6-4.3 3.3-6L228.3 81.3H26.4v318h318V187.7L192.1 340c-1.4 1.5-3.2 2.5-5.2 3.1z"/><path class="st0" d="M163.3 324.9l-65.4-65.4-19.2 89.9zM327.1 24c-4.9 0-8.9 1.6-12.6 5l-.4.4-8.7 8.7 77.4 77.4 8.5-8.5.1-.1.1-.1.4-.4C408 89 380.1 58.6 371.2 49.6 354.9 33.3 338.8 24 327.1 24z"/><path class="st1" d="M107.9 235.6l77.4 77.4 180.5-180.5-77.4-77.4-180.5 180.5zm201.5-124.1c4.7 4.7 4.7 12.3 0 17L182.6 255.2c-2.3 2.3-5.4 3.5-8.5 3.5-3.1 0-6.1-1.2-8.5-3.5-4.7-4.7-4.7-12.3 0-17l126.8-126.8c4.7-4.6 12.3-4.6 17 .1z"/><path class="st2" d="M165.6 255.2c2.3 2.3 5.4 3.5 8.5 3.5 3.1 0 6.1-1.2 8.5-3.5l126.8-126.8c4.7-4.7 4.7-12.3 0-17-4.7-4.7-12.3-4.7-17 0L165.6 238.2c-4.7 4.7-4.7 12.3 0 17z"/><path class="st3" d="M417.8 76.5c-4.6-13.9-14.9-29-29.7-43.8C373.3 17.8 350.6 0 327.1 0c-10.5 0-20.2 3.7-28.1 10.7-.4.3-.8.7-1.2 1l-45.5 45.5H14.4c-6.6 0-12 5.4-12 12v342c0 6.6 5.4 12 12 12h342c6.6 0 12-5.4 12-12V166.1c0-.7-.1-1.5-.2-2.2l39.9-39.9.2-.2.8-.8c.4-.4.7-.8 1-1.2 10.9-12.1 13.6-27.8 7.7-45.3zM163.3 324.9l-84.7 24.4 19.2-89.9 65.5 65.5zm22-12l-77.4-77.4L288.4 55.1l77.4 77.4-180.5 180.4zm159.1 86.4h-318v-318h201.8l-146 146.1c-1.6 1.6-2.8 3.7-3.3 6L51 363.9c-.9 4.1.5 8.4 3.6 11.3 2.3 2.1 5.2 3.2 8.2 3.2h231.5c6.6 0 12-5.4 12-12s-5.4-12-12-12H147.6L187 343c1.9-.6 3.7-1.6 5.2-3l152.3-152.3v211.6zm47.4-292.9l-.4.4-.1.1-.1.1-8.5 8.5-77.4-77.4 8.7-8.7.4-.4c3.7-3.4 7.7-5 12.6-5 11.7 0 27.8 9.3 44.1 25.6 9 9 36.9 39.4 20.7 56.8z"/></svg>