<svg id="Capa_1" xmlns="http://www.w3.org/2000/svg" viewBox="0 0 437.6 437.6"><style>.st0{fill:none}.st1{fill:#06baff}.st2{fill:#292827}</style><path class="st0" d="M51.7 347.3h334.1V153.4H51.7v193.9zm53.9-134.9c0-15.4 12.6-28 28-28H304c15.4 0 28 12.6 28 28v34.5c0 15.4-12.6 28-28 28H133.6c-15.4 0-28-12.6-28-28v-34.5z"/><path class="st0" d="M133.6 250.9H304c2.2 0 4-1.8 4-4v-34.5c0-2.2-1.8-4-4-4H133.6c-2.2 0-4 1.8-4 4v34.5c0 2.2 1.8 4 4 4z"/><path class="st1" d="M24 90.3h389.6v39.1H24z"/><path class="st2" d="M425.6 66.3H12c-6.6 0-12 5.4-12 12v63.1c0 6.6 5.4 12 12 12h15.7v205.9c0 6.6 5.4 12 12 12h358.1c6.6 0 12-5.4 12-12V153.4h15.7c6.6 0 12-5.4 12-12V78.3c.1-6.6-5.3-12-11.9-12zm-12 63.1H24V90.3h389.6v39.1zm-27.8 217.9H51.7V153.4h334.1v193.9z"/><path class="st2" d="M133.6 274.9H304c15.4 0 28-12.6 28-28v-34.5c0-15.4-12.6-28-28-28H133.6c-15.4 0-28 12.6-28 28v34.5c0 15.5 12.6 28 28 28zm-4-62.5c0-2.2 1.8-4 4-4H304c2.2 0 4 1.8 4 4v34.5c0 2.2-1.8 4-4 4H133.6c-2.2 0-4-1.8-4-4v-34.5z"/></svg>