<svg id="Capa_1" xmlns="http://www.w3.org/2000/svg" viewBox="0 0 435 435"><style>.st0{fill:none}.st1{fill:#06baff}.st2{fill:#292827}</style><path class="st0" d="M75.1 85.7V326.4c0 8.5 6.9 15.4 15.4 15.4h269.3v-256H75.1zM336.7 61.7c-1.7-4.2-2.6-8.8-2.6-13.6V37.6c0-4.8.9-9.4 2.6-13.6H90.5c-8.5 0-15.4 6.9-15.4 15.4v22.4H336.7z"/><path class="st1" d="M125 401.6l25.6-15.4c3.7-2.1 8.3-2.4 12.2 0l25.3 15.4v-35.9H125v35.9z"/><path class="st2" d="M371.8 61.7c-7.5 0-13.6-6.1-13.6-13.6V37.6c0-7.5 6.1-13.6 13.6-13.6 6.6 0 12-5.4 12-12s-5.4-12-12-12H90.5C68.8 0 51.1 17.7 51.1 39.4v287c0 21.7 17.7 39.4 39.4 39.4H101V423c0 4.3 2.3 8.3 6.1 10.5 1.8 1 3.9 1.5 5.9 1.5 2.2 0 4.3-.6 6.2-1.8l37.3-22.8 37.4 22.8c1.9 1.2 4.1 1.8 6.2 1.8 2 0 4.1-.5 5.9-1.5 3.8-2.1 6.1-6.1 6.1-10.5v-57.2h159.7c6.6 0 12-5.4 12-12v-280c0-6.7-5.4-12.1-12-12.1zM75.1 39.4C75.1 30.9 82 24 90.5 24h246.2c-1.7 4.2-2.6 8.8-2.6 13.6V48c0 4.8.9 9.4 2.6 13.6H75.1V39.4zm113 362.2l-25.3-15.4c-3.9-2.4-8.5-2.1-12.2 0L125 401.6v-35.9h63.2l-.1 35.9zm171.7-59.9H90.5c-8.5 0-15.4-6.9-15.4-15.4V85.7h284.7v256z"/></svg>