<svg id="Calculator" xmlns="http://www.w3.org/2000/svg" viewBox="0 0 405.9 405.9"><style>.background{fill:none}.filler{fill:#06baff}.lines{fill:#292827}</style><path class="background" d="M50.9 371.9c0 5.6 4.5 10.1 10.1 10.1h284c5.6 0 10.1-4.5 10.1-10.1V148H50.9v223.9zm218.3-194.7h56.5c6.6 0 12 5.4 12 12s-5.4 12-12 12h-56.5c-6.6 0-12-5.4-12-12s5.3-12 12-12zm0 50.9h56.5c6.6 0 12 5.4 12 12s-5.4 12-12 12h-56.5c-6.6 0-12-5.4-12-12s5.3-12 12-12zm-12 62.9c0-6.6 5.4-12 12-12h56.5c6.6 0 12 5.4 12 12v50.9c0 6.6-5.4 12-12 12h-56.5c-6.6 0-12-5.4-12-12V291zm-82.5-113.8h56.5c6.6 0 12 5.4 12 12s-5.4 12-12 12h-56.5c-6.6 0-12-5.4-12-12s5.4-12 12-12zm0 50.9h56.5c6.6 0 12 5.4 12 12s-5.4 12-12 12h-56.5c-6.6 0-12-5.4-12-12s5.4-12 12-12zm0 50.9h56.5c6.6 0 12 5.4 12 12s-5.4 12-12 12h-56.5c-6.6 0-12-5.4-12-12s5.4-12 12-12zm0 50.9h56.5c6.6 0 12 5.4 12 12s-5.4 12-12 12h-56.5c-6.6 0-12-5.4-12-12s5.4-12 12-12zM80.3 177.2h56.5c6.6 0 12 5.4 12 12s-5.4 12-12 12H80.3c-6.6 0-12-5.4-12-12s5.4-12 12-12zm0 50.9h56.5c6.6 0 12 5.4 12 12s-5.4 12-12 12H80.3c-6.6 0-12-5.4-12-12s5.4-12 12-12zm0 50.9h56.5c6.6 0 12 5.4 12 12s-5.4 12-12 12H80.3c-6.6 0-12-5.4-12-12s5.4-12 12-12zm0 50.9h56.5c6.6 0 12 5.4 12 12s-5.4 12-12 12H80.3c-6.6 0-12-5.4-12-12s5.4-12 12-12zM50.9 24H355v20.2H50.9z"/><path class="filler" d="M50.9 68.2H355V124H50.9zM281.2 303h32.5v26.9h-32.5z"/><path class="lines" d="M367 0H38.9c-6.6 0-12 5.4-12 12v359.9c0 18.8 15.3 34.1 34.1 34.1h284c18.8 0 34.1-15.3 34.1-34.1V12C379 5.4 373.7 0 367 0zM50.9 24H355v20.2H50.9V24zM355 124H50.9V68.2H355V124zm0 247.9c0 5.6-4.5 10.1-10.1 10.1H61c-5.6 0-10.1-4.5-10.1-10.1V148H355v223.9z"/><path class="lines" d="M80.3 201.2h56.5c6.6 0 12-5.4 12-12s-5.4-12-12-12H80.3c-6.6 0-12 5.4-12 12s5.4 12 12 12zM269.2 201.2h56.5c6.6 0 12-5.4 12-12s-5.4-12-12-12h-56.5c-6.6 0-12 5.4-12 12s5.3 12 12 12zM174.7 201.2h56.5c6.6 0 12-5.4 12-12s-5.4-12-12-12h-56.5c-6.6 0-12 5.4-12 12s5.4 12 12 12zM80.3 252.1h56.5c6.6 0 12-5.4 12-12s-5.4-12-12-12H80.3c-6.6 0-12 5.4-12 12s5.4 12 12 12zM269.2 252.1h56.5c6.6 0 12-5.4 12-12s-5.4-12-12-12h-56.5c-6.6 0-12 5.4-12 12s5.3 12 12 12zM174.7 252.1h56.5c6.6 0 12-5.4 12-12s-5.4-12-12-12h-56.5c-6.6 0-12 5.4-12 12s5.4 12 12 12zM80.3 303h56.5c6.6 0 12-5.4 12-12s-5.4-12-12-12H80.3c-6.6 0-12 5.4-12 12 0 6.7 5.4 12 12 12zM269.2 353.9h56.5c6.6 0 12-5.4 12-12V291c0-6.6-5.4-12-12-12h-56.5c-6.6 0-12 5.4-12 12v50.9c0 6.7 5.3 12 12 12zm12-50.9h32.5v26.9h-32.5V303zM174.7 303h56.5c6.6 0 12-5.4 12-12s-5.4-12-12-12h-56.5c-6.6 0-12 5.4-12 12 0 6.7 5.4 12 12 12zM80.3 353.9h56.5c6.6 0 12-5.4 12-12s-5.4-12-12-12H80.3c-6.6 0-12 5.4-12 12 0 6.7 5.4 12 12 12zM174.7 353.9h56.5c6.6 0 12-5.4 12-12s-5.4-12-12-12h-56.5c-6.6 0-12 5.4-12 12 0 6.7 5.4 12 12 12z"/></svg>