<?xml version="1.0" encoding="UTF-8" standalone="no"?>
<!DOCTYPE svg PUBLIC "-//W3C//DTD SVG 1.1//EN" "http://www.w3.org/Graphics/SVG/1.1/DTD/svg11.dtd">
<svg width="100%" height="100%" viewBox="0 0 398 398" version="1.1" xmlns="http://www.w3.org/2000/svg" xmlns:xlink="http://www.w3.org/1999/xlink" xml:space="preserve" style="fill-rule:evenodd;clip-rule:evenodd;stroke-linejoin:round;stroke-miterlimit:1.41421;">
<style type="text/css">
	.filler{fill:#06BAFF;}
</style>
    <g>
        <path d="M347.8,88.9C347.8,108.3 332,124.1 312.6,124.1C293.2,124.1 277.4,108.3 277.4,88.9L277.4,82.8L234.3,82.8L234.3,88.9C234.3,108.3 218.5,124.1 199.1,124.1C179.7,124.1 163.9,108.3 163.9,88.9L163.9,82.8L120.8,82.8L120.8,88.9C120.8,108.3 105,124.1 85.6,124.1C66.2,124.1 50.4,108.3 50.4,88.9L50.4,82.8L26.7,82.8L26.7,134.6L371.1,134.6L371.1,82.8L347.8,82.8L347.8,88.9Z" class="filler"/>
        <path d="M383.1,58.8L347.8,58.8L347.8,35.2C347.8,15.8 332,0 312.6,0C293.2,0 277.4,15.8 277.4,35.2L277.4,58.8L234.3,58.8L234.3,35.2C234.3,15.8 218.5,0 199.1,0C179.7,0 163.9,15.8 163.9,35.2L163.9,58.8L120.8,58.8L120.8,35.2C120.6,15.8 104.8,0 85.3,0C65.8,0 50.1,15.8 50.1,35.2L50.1,58.8L14.7,58.8C8.1,58.8 2.7,64.2 2.7,70.8L2.7,349.2C2.7,376 24.5,397.9 51.4,397.9L346.4,397.9C373.2,397.9 395.1,376.1 395.1,349.2L395.1,70.8C395.1,64.2 389.8,58.8 383.1,58.8ZM371.1,134.6L26.7,134.6L26.7,82.8L50,82.8L50,88.9C50,108.3 65.8,124.1 85.2,124.1C104.6,124.1 120.4,108.3 120.4,88.9L120.4,82.8L163.5,82.8L163.5,88.9C163.5,108.3 179.3,124.1 198.7,124.1C218.1,124.1 233.9,108.3 233.9,88.9L233.9,82.8L277,82.8L277,88.9C277,108.3 292.8,124.1 312.2,124.1C331.6,124.1 347.4,108.3 347.4,88.9L347.4,82.8L370.7,82.8L371.1,134.6ZM301.3,35.2C301.3,29 306.3,24 312.5,24C318.7,24 323.7,29 323.7,35.2L323.7,88.9C323.7,95.1 318.7,100.1 312.5,100.1C306.3,100.1 301.3,95.1 301.3,88.9L301.3,35.2ZM187.7,35.2C187.7,29 192.7,24 198.9,24C205.1,24 210.1,29 210.1,35.2L210.1,88.9C210.1,95.1 205.1,100.1 198.9,100.1C192.7,100.1 187.7,95.1 187.7,88.9L187.7,35.2ZM74.1,35.2C74.1,29 79.1,24 85.3,24C91.5,24 96.5,29 96.5,35.2L96.5,88.9C96.5,95.1 91.5,100.1 85.3,100.1C79.1,100.1 74.1,95.1 74.1,88.9L74.1,35.2ZM371.1,349.2C371.1,362.8 360,373.9 346.4,373.9L51.4,373.9C37.8,373.9 26.7,362.8 26.7,349.2L26.7,158.6L371.1,158.6L371.1,349.2Z" class="lines"/>
        <path d="M62.1,217.7L335.8,217.7C342.4,217.7 347.8,212.3 347.8,205.7C347.8,199.1 342.4,193.7 335.8,193.7L62.1,193.7C55.5,193.7 50.1,199.1 50.1,205.7C50.1,212.3 55.5,217.7 62.1,217.7Z" class="lines"/>
        <path d="M62.1,273.4L335.8,273.4C342.4,273.4 347.8,268 347.8,261.4C347.8,254.8 342.4,249.4 335.8,249.4L62.1,249.4C55.5,249.4 50.1,254.8 50.1,261.4C50.1,268 55.5,273.4 62.1,273.4Z" class="lines"/>
        <path d="M62.1,329L335.8,329C342.4,329 347.8,323.6 347.8,317C347.8,310.4 342.4,305 335.8,305L62.1,305C55.5,305 50.1,310.4 50.1,317C50.1,323.6 55.5,329 62.1,329Z" class="lines"/>
    </g>
</svg>