<svg data-name="Capa 1" xmlns="http://www.w3.org/2000/svg" viewBox="0 0 399 374.59"><title>committee</title><path d="M387.19 160.33s-22.37 50.6-59.67 52.67c-39.14 2.16-59.67-52.67-59.67-52.67M11.7 160.33h119.34S108.67 210.94 71.37 213c-39.14 2.16-59.67-52.67-59.67-52.67z" fill="#06baff"/><path d="M399 155.46c0-.43-.19-.77-.23-1.2a11 11 0 0 0-.61-3L344.01 21.94h27.45a7 7 0 0 0 5.49-2.64c7.22-9.15.9-19.3-7.83-19.3H27.53a7 7 0 0 0-5.49 2.65c-7.2 9.16-.88 19.29 7.84 19.29h25.1L.86 151.19A10.85 10.85 0 0 0 .08 155c0 .17-.08.28-.08.44 0 .33 0 .66.05 1v.07a71.452 71.452 0 0 0 142.9-1v-.08c0-.42-.2-.77-.23-1.18a10.92 10.92 0 0 0-.62-3L87.97 21.93h223.06L256.9 151.18a10.74 10.74 0 0 0-.75 3.79c0 .15-.08.28-.08.44 0 .33 0 .68.05 1v.07a71.452 71.452 0 0 0 142.9-1 .42.42 0 0 1-.02-.02zM71.47 39.38l44 105.1h-88zm0 165.62a49.54 49.54 0 0 1-48.22-38.57h96.42A49.54 49.54 0 0 1 71.47 205zm256-165.61l44 105.1h-88zm0 165.61a49.55 49.55 0 0 1-48.22-38.57h96.42A49.53 49.53 0 0 1 327.52 205z" fill="#292827"/><path d="M211.16 12v361.59h-24V12a12 12 0 0 1 12-12 12 12 0 0 1 12 12z" fill="#292827"/><rect x="74" y="350.59" width="250.33" height="24" rx="12" ry="12" fill="#292827"/></svg>