<?xml version="1.0" encoding="utf-8"?>
<!-- Generator: Adobe Illustrator 19.2.0, SVG Export Plug-In . SVG Version: 6.00 Build 0)  -->
<svg version="1.1" id="Layer_1" xmlns="http://www.w3.org/2000/svg" xmlns:xlink="http://www.w3.org/1999/xlink" x="0px" y="0px"
	 viewBox="0 0 24 24" style="enable-background:new 0 0 24 24;" xml:space="preserve">
<style type="text/css">
	.st0{fill:#06BAFF;}
	.st1{fill:none;}
</style>
<path class="st0" d="M20.3,12.8c0,5-4.2,9.1-9.3,9.1s-9.3-4.1-9.3-9.1S5.9,3.8,11,3.8c1.3,0,2.6,1.3,3.6,0.7
	c5.5-3.5,11.1,3.5,5.7,7.5C20,12.2,20.3,12.6,20.3,12.8z"/>
<path d="M18.9,12.2c0,0.3,0.1,0.4,0.1,0.8c0,2.1-0.8,4-2.1,5.4c-0.3-0.8-1-1.4-1.9-1.4h-1v-3c0-0.6-0.4-1-1-1H7v-2h2
	c0.6,0,1-0.4,1-1V8h2c1.1,0,1.6-1.1,2-2V4.8V4.4l1.2-0.3L14,3.5C13.1,3.2,12.1,3,11,3C5.5,3,1,7.5,1,13s4.5,10,10,10s10-4.5,10-10
	c0-0.3,0-0.7,0-1L18.9,12.2z M10,20.9c-3.9-0.5-7-3.9-7-7.9c0-0.6,0.1-1.2,0.2-1.8L8,16v1c0,1.1,0.9,2,2,2V20.9z"/>
<path class="st1" d="M0,0h24v24H0V0z"/>
<path d="M17.4,10.7h1.1V7.4h-1.1V10.7z M18,2.4c-3,0-5.5,2.5-5.5,5.5s2.5,5.5,5.5,5.5s5.5-2.5,5.5-5.5S21,2.4,18,2.4z M18,12.4
	c-2.4,0-4.4-2-4.4-4.4s2-4.4,4.4-4.4s4.4,2,4.4,4.4S20.4,12.4,18,12.4z M17.4,6.3h1.1V5.2h-1.1V6.3z"/>
</svg>
