<?xml version="1.0" encoding="utf-8"?>
<!-- Generator: Adobe Illustrator 19.2.0, SVG Export Plug-In . SVG Version: 6.00 Build 0)  -->
<svg version="1.1" id="Capa_1" xmlns="http://www.w3.org/2000/svg" xmlns:xlink="http://www.w3.org/1999/xlink" x="0px" y="0px"
	 viewBox="0 0 383 383" style="enable-background:new 0 0 383 383;" xml:space="preserve">
<style type="text/css">
	.st0{fill:#06BAFF;stroke:#292827;stroke-width:22;stroke-miterlimit:10;}
	.st1{fill:none;}
	.st2{fill:#292827;}
</style>
<path class="st0" d="M10,60.7h179.3c0,0-36.7,0,0.1,0c8.6,0,86.1,9.6,86.1,83.6c0,69.2-57,91.2-83,91.2c0,0,44.4-18.2,44.4-55.2
	s-46.3-47.4-71-47.4S10,132.3,10,132.3V60.7z"/>
<path class="st0" d="M372,252.1c0,0-225.9,0-231.3,0c31.7,0,47.5-40.7,22.8-61.6c-44-31-98.9,12.7-98.9,67
	c0,16.8,18.6,65.8,66.5,65.8s240.9,0,240.9,0V252.1z"/>
<g>
	<path class="st1" d="M346.6,24H36.4C29.6,24,24,29.6,24,36.4v310.2c0,6.8,5.6,12.4,12.4,12.4h310.2c6.8,0,12.4-5.6,12.4-12.4V36.4
		C359,29.6,353.4,24,346.6,24z"/>
	<g>
		<path class="st2" d="M346.6,0H36.4C16.3,0,0,16.3,0,36.4v310.2C0,366.6,16.3,383,36.4,383h310.2c20.1,0,36.4-16.3,36.4-36.4V36.4
			C383,16.3,366.6,0,346.6,0z M359,346.6c0,6.8-5.6,12.4-12.4,12.4H36.4c-6.8,0-12.4-5.6-12.4-12.4V36.4C24,29.6,29.6,24,36.4,24
			h310.2c6.8,0,12.4,5.6,12.4,12.4L359,346.6L359,346.6z"/>
	</g>
</g>
</svg>
