<?xml version="1.0" encoding="utf-8"?>
<!-- Generator: Adobe Illustrator 19.2.0, SVG Export Plug-In . SVG Version: 6.00 Build 0)  -->
<svg version="1.1" id="Capa_1" xmlns="http://www.w3.org/2000/svg" xmlns:xlink="http://www.w3.org/1999/xlink" x="0px" y="0px"
	 viewBox="0 0 403.8 403.8" style="enable-background:new 0 0 403.8 403.8;" xml:space="preserve">
<style type="text/css">
	.st0{fill:none;}
	.st1{fill:#06BAFF;}
	.st2{fill:#292827;}
</style>
<g>
	<g>
		<path class="st0" d="M213.8,347c-9.1,0-16.4,7.4-16.4,16.4s7.4,16.4,16.4,16.4s16.4-7.4,16.4-16.4
			C230.2,354.4,222.8,347,213.8,347z"/>
		<path class="st0" d="M78,347c-9.1,0-16.4,7.4-16.4,16.4s7.4,16.4,16.4,16.4s16.4-7.4,16.4-16.4C94.4,354.4,87,347,78,347z"/>
		<path class="st0" d="M339.8,347c-9.1,0-16.4,7.4-16.4,16.4s7.4,16.4,16.4,16.4s16.4-7.4,16.4-16.4
			C356.2,354.4,348.8,347,339.8,347z"/>
		<path class="st1" d="M321.6,213.8c1.9,1.2,4.2,1.4,6.2,1.2V82.5c-9,30.3-17,66-16.6,95.1C311.5,204.8,318.6,212,321.6,213.8z"/>
		<path class="st1" d="M246.9,91.1c0-39.5-17.5-67.1-33.2-67.1c-15.7,0-33.2,27.6-33.2,67.1c0,39.5,17.5,67.1,33.2,67.1
			C229.4,158.2,246.9,130.7,246.9,91.1z"/>
		<path class="st2" d="M351.8,324.8V12.7c0-0.2,0-0.3,0-0.4c0.1-4.8-2.6-9.4-7.3-11.3c-6.1-2.6-13.1,0.3-15.7,6.4
			c-1.7,4.1-42.5,101.4-41.5,170.5c0.4,29.1,7.9,48.2,22.3,56.7c5.8,3.4,11.8,4.6,17.1,4.6c0.4,0,0.8,0,1.2,0v85.7
			c-16.4,5.1-28.4,20.5-28.4,38.6c0,22.3,18.1,40.4,40.4,40.4s40.4-18.1,40.4-40.4C380.2,345.3,368.2,329.9,351.8,324.8z
			 M327.8,82.5v132.6c-2.1,0.2-4.3-0.1-6.2-1.2c-3-1.8-10-9-10.4-36.3C310.8,148.4,318.8,112.8,327.8,82.5z M339.8,379.8
			c-9.1,0-16.4-7.4-16.4-16.4s7.4-16.4,16.4-16.4s16.4,7.4,16.4,16.4C356.2,372.5,348.8,379.8,339.8,379.8z"/>
		<path class="st2" d="M117.5,143.2c14.6-14.5,14.8-34.4,14.7-37.5V20.4c0-6.6-5.4-12-12-12c-6.6,0-12,5.4-12,12v85.4
			c0,0.1,0,0.1,0,0.2c0,0.1,0.1,12.6-7.8,20.2c-2.7,2.7-6.2,4.5-10.5,5.6V12c0-6.6-5.4-12-12-12c-6.6,0-12,5.4-12,12v119.9
			c-4.3-1.1-7.8-3-10.5-5.6c-7.8-7.7-7.8-20.1-7.8-20.1c0-0.1,0-0.2,0-0.3V20.4c0-6.6-5.4-12-12-12c-6.6,0-12,5.4-12,12v85.3
			c-0.1,3.1,0.2,23,14.7,37.5c7.2,7.2,16.5,11.6,27.5,13.2v168.5c-16.4,5.1-28.4,20.5-28.4,38.6c0,22.3,18.1,40.4,40.4,40.4
			s40.4-18.1,40.4-40.4c0-18.1-12-33.5-28.4-38.6V156.4C101,154.8,110.3,150.4,117.5,143.2z M94.4,363.4c0,9.1-7.4,16.4-16.4,16.4
			s-16.4-7.4-16.4-16.4S68.9,347,78,347S94.4,354.4,94.4,363.4z"/>
		<path class="st2" d="M270.9,91.1C270.9,40,245.8,0,213.8,0c-32,0-57.2,40-57.2,91.1c0,44.5,19.1,80.6,45.2,89.2v144.5
			c-16.4,5.1-28.4,20.5-28.4,38.6c0,22.3,18.1,40.4,40.4,40.4s40.4-18.1,40.4-40.4c0-18.1-12-33.5-28.4-38.6V180.3
			C251.9,171.7,270.9,135.6,270.9,91.1z M180.6,91.1c0-39.5,17.5-67.1,33.2-67.1s33.2,27.6,33.2,67.1c0,39.5-17.5,67.1-33.2,67.1
			C198.1,158.2,180.6,130.7,180.6,91.1z M230.2,363.4c0,9.1-7.4,16.4-16.4,16.4c-9.1,0-16.4-7.4-16.4-16.4s7.4-16.4,16.4-16.4
			C222.8,347,230.2,354.4,230.2,363.4z"/>
	</g>
</g>
</svg>
