<?xml version="1.0" encoding="utf-8"?>
<!-- Generator: Adobe Illustrator 19.2.0, SVG Export Plug-In . SVG Version: 6.00 Build 0)  -->
<svg version="1.1" id="Layer_1" xmlns="http://www.w3.org/2000/svg" xmlns:xlink="http://www.w3.org/1999/xlink" x="0px" y="0px"
	 viewBox="0 0 24 24" style="enable-background:new 0 0 24 24;" xml:space="preserve">
<style type="text/css">
	.st0{fill:#06BAFF;}
	.st1{fill:none;}
</style>
<rect x="7.4" y="7.5" class="st0" width="10.1" height="8.3"/>
<path d="M21.7,11.3l-9-9c-0.4-0.4-1-0.4-1.4,0l-9,9c-0.4,0.4-0.4,1,0,1.4l9,9c0.4,0.4,1,0.4,1.4,0l9-9
	C22.1,12.3,22.1,11.7,21.7,11.3z M14,14.5V12h-4v3H8v-4c0-0.6,0.4-1,1-1h5V7.5l3.5,3.5L14,14.5z"/>
<path class="st1" d="M0,0h24v24H0V0z"/>
</svg>
