<?xml version="1.0" encoding="utf-8"?>
<!-- Generator: Adobe Illustrator 19.2.0, SVG Export Plug-In . SVG Version: 6.00 Build 0)  -->
<svg version="1.1" id="envelope" xmlns="http://www.w3.org/2000/svg" xmlns:xlink="http://www.w3.org/1999/xlink" x="0px" y="0px"
	 viewBox="0 0 392.3 392.3" style="enable-background:new 0 0 392.3 392.3;" xml:space="preserve">
<path class="lines" d="M380.3,57H12C5.4,57,0,62.4,0,69v254.3c0,6.6,5.4,12,12,12h368.3c6.6,0,12-5.4,12-12V69
	C392.3,62.4,386.9,57,380.3,57z M24,96.5l57.3,53.1L24,203.8V96.5z M42.6,81h307L196.1,223.1L42.6,81z M368.3,96.5v107.4l-57.4-54.3
	L368.3,96.5z M24,311.3v-74.4l75-71l89,82.4c2.3,2.1,5.2,3.2,8.2,3.2c2.9,0,5.9-1.1,8.2-3.2l89-82.4l73.3,69.4
	c0.5,0.5,1.1,1,1.7,1.3v74.7H24z"/>
</svg>
