<?xml version="1.0" encoding="utf-8"?>
<!-- Generator: Adobe Illustrator 19.2.0, SVG Export Plug-In . SVG Version: 6.00 Build 0)  -->
<svg version="1.1" id="Capa_1" xmlns="http://www.w3.org/2000/svg" xmlns:xlink="http://www.w3.org/1999/xlink" x="0px" y="0px"
	 viewBox="0 0 425.4 425.4" style="enable-background:new 0 0 425.4 425.4;" xml:space="preserve">
<style type="text/css">
	.st0{fill:#06BAFF;}
	.st1{fill:none;}
	.st2{fill:#292927;}
	.st3{fill:#292827;}
</style>
<g>
	<g>
		<path class="st0" d="M261.1,212.7c0-26.7-21.7-48.4-48.4-48.4c-26.7,0-48.4,21.7-48.4,48.4c0,26.7,21.7,48.4,48.4,48.4
			C239.4,261.1,261.1,239.4,261.1,212.7z"/>
		<path class="st0" d="M366.5,316.6h34.9v-34.9C384.3,286.1,370.9,299.5,366.5,316.6z"/>
		<path class="st1" d="M366.5,316.6h34.9v-34.9C384.3,286.1,370.9,299.5,366.5,316.6z"/>
		<path class="st0" d="M58.9,108.8H24v34.9C41,139.3,54.5,125.9,58.9,108.8z"/>
		<path class="st0" d="M24,281.7v34.9h34.9C54.5,299.5,41,286.1,24,281.7z"/>
		<path class="st0" d="M401.4,143.7v-34.9h-34.9C370.9,125.9,384.3,139.3,401.4,143.7z"/>
		<path class="st1" d="M342,108.8H83.4c-5.1,30.3-29.1,54.3-59.4,59.4v89c30.3,5.1,54.3,29.1,59.4,59.4H342
			c5.1-30.3,29.1-54.3,59.4-59.4v-89C371.1,163.1,347.1,139.1,342,108.8z"/>
		<path class="st1" d="M401.4,143.7v-34.9h-34.9C370.9,125.9,384.3,139.3,401.4,143.7z"/>
		<path class="st2" d="M413.4,84.8H12c-6.6,0-12,5.4-12,12v231.7c0,6.6,5.4,12,12,12h401.4c6.6,0,12-5.4,12-12V96.8
			C425.4,90.2,420,84.8,413.4,84.8z M24,316.6v-34.9c17,4.4,30.5,17.8,34.9,34.9L24,316.6L24,316.6z M58.9,108.8
			c-4.4,17-17.8,30.5-34.9,34.9v-34.9C24,108.8,58.9,108.8,58.9,108.8z M401.4,316.6h-34.9c4.4-17,17.8-30.5,34.9-34.9V316.6z
			 M401.4,257.2c-30.3,5.1-54.3,29.1-59.4,59.4H83.4c-5.1-30.3-29.1-54.3-59.4-59.4v-89c30.3-5.1,54.3-29.1,59.4-59.4H342
			c5.1,30.3,29.1,54.3,59.4,59.4L401.4,257.2L401.4,257.2z M401.4,143.7c-17.1-4.4-30.5-17.8-34.9-34.9h34.9V143.7z"/>
		<path class="st3" d="M212.7,140.3c-39.9,0-72.4,32.5-72.4,72.4c0,39.9,32.5,72.4,72.4,72.4s72.4-32.5,72.4-72.4
			C285.1,172.8,252.6,140.3,212.7,140.3z M164.3,212.7c0-26.7,21.7-48.4,48.4-48.4c26.7,0,48.4,21.7,48.4,48.4
			c0,26.7-21.7,48.4-48.4,48.4C186,261.1,164.3,239.4,164.3,212.7z"/>
	</g>
</g>
</svg>
