<svg id="facebook" xmlns="http://www.w3.org/2000/svg" viewBox="0 0 276.81 511.99"><title>facebook</title><path d="M384,0.11L317.58,0C243,0,194.79,49.46,194.79,126v58.1H128a10.44,10.44,0,0,0-10.44,10.45v84.17A10.44,10.44,0,0,0,128,289.16h66.76v212.4A10.44,10.44,0,0,0,205.23,512h87.1a10.44,10.44,0,0,0,10.44-10.44V289.16h78.05a10.44,10.44,0,0,0,10.44-10.44l0-84.17a10.45,10.45,0,0,0-10.45-10.45H302.77V134.85c0-23.67,5.64-35.69,36.48-35.69l44.73,0A10.44,10.44,0,0,0,394.4,88.71V10.55A10.44,10.44,0,0,0,384,.11Z" transform="translate(-117.59 0)" class="filler"/></svg>