<?xml version="1.0" encoding="utf-8"?>
<!-- Generator: Adobe Illustrator 19.2.0, SVG Export Plug-In . SVG Version: 6.00 Build 0)  -->
<svg version="1.1" id="fax" xmlns="http://www.w3.org/2000/svg" xmlns:xlink="http://www.w3.org/1999/xlink" x="0px" y="0px"
	 viewBox="0 0 392.3 392.3" style="enable-background:new 0 0 392.3 392.3;" xml:space="preserve">
<g>
	<path d="M336.1,69.6h-6.8V29.2c0-9.4-7.7-17.1-17.1-17.1H187.4c-9.4,0-17.1,7.7-17.1,17.1v40.4h-3.8c-0.7-6-3.3-11.6-7.5-16
		c-5.3-5.5-12.4-8.5-20.1-8.5h-94c-7.7,0-14.8,3-20.1,8.5s-8,12.7-7.7,20.4v286.9c-0.3,7.7,2.5,14.9,7.8,20.4s12.4,8.5,20.1,8.5h94
		c7.7,0,14.8-3,20.1-8.5c3.1-3.2,5.3-7,6.5-11.2h164.9c20.2,0,36.6-16.4,36.6-36.6V106.2C367,86.1,353.1,69.6,336.1,69.6z
		 M194.7,36.6h110.1V124H194.7V36.6z M141.4,364.4c-0.5,0.5-1.3,1-2.5,1h-94c-1.3,0-2.1-0.6-2.5-1s-1-1.3-0.9-2.6V73.1
		c0-1.3,0.5-2.1,0.9-2.6c0.5-0.5,1.3-1,2.5-1h94c1.3,0,2.1,0.6,2.5,1c0.5,0.5,1,1.3,0.9,2.6v288.7
		C142.4,363.1,141.9,363.9,141.4,364.4z M342.6,333.6c0,6.7-5.5,12.2-12.2,12.2H166.2L166,94h4.4v37.3c0,9.4,7.7,17.1,17.1,17.1
		h124.8c9.4,0,17.1-7.7,17.1-17.1V94h6.8c2.6,0,6.6,4.9,6.6,12.2v227.4H342.6z"/>
	<path d="M202.7,183.6H189c-6.7,0-12.2,5.5-12.2,12.2S182.3,208,189,208h13.7c6.7,0,12.2-5.5,12.2-12.2S209.5,183.6,202.7,183.6z"/>
	<path d="M255.8,183.6h-13.7c-6.7,0-12.2,5.5-12.2,12.2s5.5,12.2,12.2,12.2h13.7c6.7,0,12.2-5.5,12.2-12.2S262.6,183.6,255.8,183.6z
		"/>
	<path d="M308.9,183.6h-13.7c-6.7,0-12.2,5.5-12.2,12.2s5.5,12.2,12.2,12.2h13.7c6.7,0,12.2-5.5,12.2-12.2S315.6,183.6,308.9,183.6z
		"/>
	<path d="M202.7,230.3H189c-6.7,0-12.2,5.5-12.2,12.2s5.5,12.2,12.2,12.2h13.7c6.7,0,12.2-5.5,12.2-12.2S209.5,230.3,202.7,230.3z"
		/>
	<path d="M255.8,230.3h-13.7c-6.7,0-12.2,5.5-12.2,12.2s5.5,12.2,12.2,12.2h13.7c6.7,0,12.2-5.5,12.2-12.2S262.6,230.3,255.8,230.3z
		"/>
	<path d="M308.9,230.3h-13.7c-6.7,0-12.2,5.5-12.2,12.2s5.5,12.2,12.2,12.2h13.7c6.7,0,12.2-5.5,12.2-12.2S315.6,230.3,308.9,230.3z
		"/>
	<path d="M202.7,277H189c-6.7,0-12.2,5.5-12.2,12.2s5.5,12.2,12.2,12.2h13.7c6.7,0,12.2-5.5,12.2-12.2S209.5,277,202.7,277z"/>
	<path d="M255.8,277h-13.7c-6.7,0-12.2,5.5-12.2,12.2s5.5,12.2,12.2,12.2h13.7c6.7,0,12.2-5.5,12.2-12.2S262.6,277,255.8,277z"/>
	<path d="M308.9,277h-13.7c-6.7,0-12.2,5.5-12.2,12.2s5.5,12.2,12.2,12.2h13.7c6.7,0,12.2-5.5,12.2-12.2S315.6,277,308.9,277z"/>
	<path d="M278.5,49.2h-57.4c-4.5,0-8.1,3.6-8.1,8.1s3.6,8.1,8.1,8.1h57.4c4.5,0,8.1-3.6,8.1-8.1S283,49.2,278.5,49.2z"/>
	<path d="M255,84.3h-33.9c-4.5,0-8.1,3.6-8.1,8.1s3.6,8.1,8.1,8.1H255c4.5,0,8.1-3.6,8.1-8.1S259.5,84.3,255,84.3z"/>
</g>
</svg>
