<svg id="gavel" xmlns="http://www.w3.org/2000/svg" viewBox="0 0 396.22 400.85"><title>gavel</title><rect x="207.74" y="83.27" width="81.48" height="97.56" transform="translate(-26.8 210.87) rotate(-44.81)" class="filler"/><path d="M246.87,204.17a22.57,22.57,0,0,0,12.94,32.18,14.65,14.65,0,0,1,9.41,9.41,22.75,22.75,0,0,0,6.14,9.62,22.36,22.36,0,0,0,15.3,5.92,23.28,23.28,0,0,0,16.47-6.78l64.24-64.24c8.69-8.69,9.08-23,.86-31.78a22.74,22.74,0,0,0-9.62-6.14A14.65,14.65,0,0,1,353.2,143,22.57,22.57,0,0,0,321,130L250.76,59.76a22.57,22.57,0,0,0-12.94-32.18,14.65,14.65,0,0,1-9.41-9.41,22.75,22.75,0,0,0-6.14-9.62c-8.83-8.22-23.08-7.84-31.78.86L126.26,73.65c-8.69,8.69-9.08,23-.86,31.78a22.75,22.75,0,0,0,9.62,6.14,14.65,14.65,0,0,1,9.41,9.41,22.74,22.74,0,0,0,6.14,9.62,22.37,22.37,0,0,0,15.3,5.92,23.48,23.48,0,0,0,10.75-2.6l19.76,19.76L13,337a24.17,24.17,0,0,0,34.18,34.18L230.56,187.85Zm117-37.88h0a11.57,11.57,0,0,1-.58,15.91l-64.24,64.24a11.57,11.57,0,0,1-15.91.58,11.15,11.15,0,0,1-3.05-4.77,25.87,25.87,0,0,0-2.78-5.91l75.88-75.88a25.91,25.91,0,0,0,5.91,2.78A11.15,11.15,0,0,1,363.87,166.29ZM339.28,141.7a11.15,11.15,0,0,1,3.05,4.77,25.9,25.9,0,0,0,2.78,5.91l-75.88,75.88a25.91,25.91,0,0,0-5.91-2.78,11.15,11.15,0,0,1-4.77-3.05,11.57,11.57,0,0,1,.57-15.91l32.12-32.12,32.12-32.12a11.88,11.88,0,0,1,8.39-3.47A11,11,0,0,1,339.28,141.7ZM133.76,97.64a11.57,11.57,0,0,1,.58-15.91l64.24-64.24A11.87,11.87,0,0,1,207,14a11,11,0,0,1,7.52,2.9,11.15,11.15,0,0,1,3.05,4.77,25.9,25.9,0,0,0,2.78,5.91l-75.88,75.88a25.91,25.91,0,0,0-5.91-2.78A11.14,11.14,0,0,1,133.76,97.64Zm24.59,24.59a11.13,11.13,0,0,1-3.05-4.77,25.9,25.9,0,0,0-2.78-5.91L228.4,35.67a25.91,25.91,0,0,0,5.91,2.78,11.14,11.14,0,0,1,4.77,3.05h0a11.57,11.57,0,0,1-.58,15.91l-64.24,64.24A11.57,11.57,0,0,1,158.35,122.23Zm85.11-53.61,68.7,68.7-29,29-29,29-68.7-68.7ZM39.11,363.15a12.74,12.74,0,0,1-18-18L204.46,161.75l18,18Z" transform="translate(-5.94 -2.62)" class="lines"/><path d="M402.15,373.41a5.7,5.7,0,0,0-1.17-3.47l-23.24-30.37V325.69A5.71,5.71,0,0,0,372,320h-160a5.71,5.71,0,0,0-5.71,5.71v13.88l-23.24,30.37a5.7,5.7,0,0,0-1.17,3.47v24.34a5.71,5.71,0,0,0,5.71,5.71H396.44a5.71,5.71,0,0,0,5.71-5.71V373.41Zm-184.36-42H366.31v4.39H217.78V331.4h0Zm-2.89,15.82H369.2l15.68,20.48H199.22ZM193.36,392V379.13H390.73V392H193.36Z" transform="translate(-5.94 -2.62)" class="lines"/><path d="M287.5,140.27a5.71,5.71,0,1,0,8.08-8.08l-47-47a5.71,5.71,0,0,0-8.08,8.08Z" transform="translate(-5.94 -2.62)" class="lines"/><polygon points="208.95 344.6 363.26 344.6 378.94 365.08 193.28 365.08 208.95 344.6" class="filler"/></svg>