<?xml version="1.0" encoding="utf-8"?>
<!-- Generator: Adobe Illustrator 19.2.0, SVG Export Plug-In . SVG Version: 6.00 Build 0)  -->
<svg version="1.1" id="Capa_1" xmlns="http://www.w3.org/2000/svg" xmlns:xlink="http://www.w3.org/1999/xlink" x="0px" y="0px"
	 viewBox="0 0 410.6 410.6" style="enable-background:new 0 0 410.6 410.6;" xml:space="preserve">
<style type="text/css">
	.st0{fill:none;}
	.st1{fill:#06BAFF;}
	.st2{fill:#292827;}
</style>
<g>
	<g>
		<path class="st0" d="M205.3,24C105.3,24,24,105.3,24,205.3c0,100,81.3,181.3,181.3,181.3s181.3-81.3,181.3-181.3
			C386.6,105.3,305.2,24,205.3,24z M202.1,51.4c24.6,0,44.5,20,44.5,44.5c0,24.6-20,44.5-44.5,44.5c-24.6,0-44.5-20-44.5-44.5
			C157.5,71.4,177.5,51.4,202.1,51.4z M288.5,347.1c0,6.6-5.4,12-12,12H140.6c-6.6,0-12-5.4-12-12v-45.6c0-6.6,5.4-12,12-12h23.1
			v-76.4h-29.7c-6.6,0-12-5.4-12-12v-37.5c0-6.6,5.4-12,12-12h106.7c6.6,0,12,5.4,12,12v126h23.7c6.6,0,12,5.4,12,12L288.5,347.1
			L288.5,347.1z"/>
		<path class="st1" d="M202.1,116.5c11.3,0,20.5-9.2,20.5-20.5s-9.2-20.5-20.5-20.5c-11.3,0-20.5,9.2-20.5,20.5
			C181.5,107.3,190.8,116.5,202.1,116.5z"/>
		<path class="st1" d="M228.8,301.6v-126h-82.7v13.5h29.6c6.6,0,12,5.4,12,12v100.4c0,6.6-5.4,12-12,12h-23.1v21.6h111.9v-21.6
			h-23.7C234.1,313.6,228.8,308.2,228.8,301.6z"/>
		<path class="st2" d="M205.3,0C92.1,0,0,92.1,0,205.3c0,113.2,92.1,205.3,205.3,205.3s205.3-92.1,205.3-205.3S318.5,0,205.3,0z
			 M205.3,386.6c-100,0-181.3-81.3-181.3-181.3C24,105.3,105.3,24,205.3,24s181.3,81.3,181.3,181.3
			C386.6,305.2,305.2,386.6,205.3,386.6z"/>
		<path class="st2" d="M202.1,140.5c24.6,0,44.5-20,44.5-44.5c0-24.6-20-44.5-44.5-44.5c-24.6,0-44.5,20-44.5,44.5
			C157.5,120.5,177.5,140.5,202.1,140.5z M202.1,75.4c11.3,0,20.5,9.2,20.5,20.5c0,11.3-9.2,20.5-20.5,20.5
			c-11.3,0-20.5-9.2-20.5-20.5C181.5,84.6,190.8,75.4,202.1,75.4z"/>
		<path class="st2" d="M276.5,289.6h-23.7v-126c0-6.6-5.4-12-12-12H134.1c-6.6,0-12,5.4-12,12v37.5c0,6.6,5.4,12,12,12h29.6v76.4
			h-23.1c-6.6,0-12,5.4-12,12v45.6c0,6.6,5.4,12,12,12h135.9c6.6,0,12-5.4,12-12v-45.6C288.5,295,283.1,289.6,276.5,289.6z
			 M264.5,335.1H152.6v-21.6h23.1c6.6,0,12-5.4,12-12V201.2c0-6.6-5.4-12-12-12h-29.7v-13.5h82.7v126c0,6.6,5.4,12,12,12h23.7
			L264.5,335.1L264.5,335.1z"/>
	</g>
</g>
</svg>
