<svg id="Capa_1" data-name="Capa 1" xmlns="http://www.w3.org/2000/svg" viewBox="0 0 445.16 369.36"><title>insight</title><path d="M171.83,147a30.55,30.55,0,1,0,30.55,30.55A30.58,30.58,0,0,0,171.83,147Z" transform="translate(0 -37.9)" style="fill:none"/><path d="M390.61,61.9a30.55,30.55,0,1,0,30.55,30.55A30.58,30.58,0,0,0,390.61,61.9Z" transform="translate(0 -37.9)" style="fill:none"/><path d="M54.55,322.17a30.55,30.55,0,1,0,30.55,30.55A30.58,30.58,0,0,0,54.55,322.17Z" transform="translate(0 -37.9)" style="fill:#06baff"/><path d="M320.36,284a30.55,30.55,0,1,0-30.55,30.55A30.58,30.58,0,0,0,320.36,284Z" transform="translate(0 -37.9)" style="fill:#06baff"/><path d="M390.61,37.9a54.51,54.51,0,0,0-35.38,96L304,231.29a54.38,54.38,0,0,0-45.61,8.14l-39-35.18A54.55,54.55,0,1,0,132.28,215L74.17,301.83A54.71,54.71,0,1,0,94.1,315.21l58.11-86.79a54.36,54.36,0,0,0,51.07-6.35l39,35.18A54.55,54.55,0,1,0,325.2,242.5l51.25-97.38A54.55,54.55,0,1,0,390.61,37.9ZM54.55,383.26a30.55,30.55,0,1,1,30.55-30.55A30.58,30.58,0,0,1,54.55,383.26ZM171.83,208.09a30.55,30.55,0,1,1,30.55-30.55A30.58,30.58,0,0,1,171.83,208.09ZM259.26,284a30.55,30.55,0,1,1,30.55,30.55A30.58,30.58,0,0,1,259.26,284ZM390.61,123a30.55,30.55,0,1,1,30.55-30.55A30.58,30.58,0,0,1,390.61,123Z" transform="translate(0 -37.9)" style="fill:#292827"/></svg>