<?xml version="1.0" encoding="utf-8"?>
<!-- Generator: Adobe Illustrator 19.2.0, SVG Export Plug-In . SVG Version: 6.00 Build 0)  -->
<svg version="1.1" id="Capa_1" xmlns="http://www.w3.org/2000/svg" xmlns:xlink="http://www.w3.org/1999/xlink" x="0px" y="0px"
	 viewBox="0 0 416.4 416.4" style="enable-background:new 0 0 416.4 416.4;" xml:space="preserve">
<style type="text/css">
	.st0{fill:none;}
	.st1{fill:#73D0F4;}
	.st2{fill:#06BAFF;}
	.st3{fill:#292827;}
</style>
<g>
	<g>
		<path class="st0" d="M226.1,65l-7.5,58.2h36.7l11.8-25.5c2-4.2,6.2-7,10.9-7c0,0,0,0,0.1,0l72.3,0.4
			c-19.1-23.1-43.7-41.5-71.8-53.2L226.1,65z"/>
		<path class="st0" d="M86.6,115l-8.7-36.9c-31.9,32-52.2,75.6-53.8,123.9l41.3-5.7L86.6,115z"/>
		<path class="st0" d="M39.7,282.7c8.8,19.9,21,37.9,36,53.3l-9.2-41.4L39.7,282.7z"/>
		<path class="st0" d="M339.1,181.2h-99.1l-51,51v49h58c6.6,0,12,5.4,12,12v92.1c66-18.9,116.9-73.9,130.1-142.1
			c-0.2-0.2-0.4-0.4-0.6-0.6C365.6,215,346.7,191,339.1,181.2z"/>
		<path class="st1" d="M320.4,32.9c0.3,0.2,0.5,0.3,0.8,0.5C326.4,34.7,325.1,34.2,320.4,32.9z"/>
		<path class="st2" d="M285.6,114.8l-11.8,25.5c-2,4.2-6.2,7-10.9,7h-58c-3.4,0-6.7-1.5-9-4.1c-2.3-2.6-3.3-6-2.9-9.5l10-78
			c0.5-3.9,2.9-7.3,6.4-9.1l36.2-18.7C233.6,25.3,221,24,208.2,24c-41.1,0-79.1,13.5-109.8,36.4l12.3,52c0.4,1.9,0.4,3.9-0.1,5.8
			l-24,92c-1.2,4.7-5.2,8.2-10,8.9L29,225.6l1.6,26.7l51.1,22.9c3.5,1.5,6,4.6,6.8,8.3l17.4,77.8c29.3,19.6,64.5,31.1,102.3,31.1
			c9.1,0,18-0.7,26.8-1.9v-85.3h-58c-6.6,0-12-5.4-12-12v-66c0-3.2,1.3-6.2,3.5-8.5l58-58c2.3-2.3,5.3-3.5,8.5-3.5h110
			c3.7,0,7.3,1.7,9.5,4.7c0.2,0.2,15.8,20.6,37.9,47.7c0-0.5,0-0.9,0-1.4c0-33.9-9.2-65.7-25.3-93L285.6,114.8z"/>
		<path class="st3" d="M321.1,33.4c-0.3-0.2-0.5-0.3-0.8-0.5C288,12.1,249.5,0,208.2,0C93.4,0,0,93.4,0,208.2
			s93.4,208.2,208.2,208.2c114.8,0,208.2-93.4,208.2-208.2C416.4,135,378.4,70.5,321.1,33.4z M392.4,209.5
			c-22.1-27.1-37.7-47.4-37.9-47.7c-2.3-3-5.8-4.7-9.5-4.7H235c-3.2,0-6.2,1.3-8.5,3.5l-58,58c-2.3,2.3-3.5,5.3-3.5,8.5v66
			c0,6.6,5.4,12,12,12h58v85.3c-8.7,1.3-17.7,1.9-26.8,1.9c-37.8,0-73-11.5-102.3-31.1l-17.4-77.8c-0.8-3.7-3.3-6.8-6.8-8.3
			l-51.1-22.9L29,225.6l47.5-6.5c4.8-0.7,8.7-4.2,10-8.9l24-92c0.5-1.9,0.5-3.9,0.1-5.8l-12.3-52C129.1,37.5,167.1,24,208.2,24
			c12.8,0,25.4,1.3,37.5,3.8l-36.2,18.7c-3.5,1.8-5.9,5.2-6.4,9.1l-10,78c-0.4,3.4,0.6,6.9,2.9,9.5c2.3,2.6,5.6,4.1,9,4.1h58
			c4.7,0,8.9-2.7,10.9-7l11.8-25.5l81.5,0.4c16.1,27.3,25.3,59.1,25.3,93C392.4,208.6,392.4,209.1,392.4,209.5z M350.3,91.1
			L278,90.7c0,0,0,0-0.1,0c-4.7,0-8.9,2.7-10.9,7l-11.8,25.5h-36.7l7.5-58.2l52.4-27C306.5,49.6,331.2,68,350.3,91.1z M77.9,78.1
			l8.7,36.9l-21.2,81.4l-41.3,5.7C25.7,153.8,46,110.1,77.9,78.1z M39.7,282.7l26.7,12l9.2,41.4C60.8,320.6,48.6,302.5,39.7,282.7z
			 M258.9,385.3v-92.1c0-6.6-5.4-12-12-12h-58v-49l51-51h99.1c7.6,9.8,26.5,33.9,49.4,61.3c0.2,0.2,0.4,0.4,0.6,0.6
			C375.9,311.4,325,366.3,258.9,385.3z"/>
	</g>
</g>
</svg>
