<?xml version="1.0" encoding="utf-8"?>
<!-- Generator: Adobe Illustrator 19.2.0, SVG Export Plug-In . SVG Version: 6.00 Build 0)  -->
<svg version="1.1" id="link" xmlns="http://www.w3.org/2000/svg" xmlns:xlink="http://www.w3.org/1999/xlink" x="0px" y="0px"
	 viewBox="0 0 394.7 394.7" style="enable-background:new 0 0 394.7 394.7;" xml:space="preserve">
<style type="text/css">
	.st0{fill:none;}
	.st1{fill:#06BAFF;}
	.st2{fill:#292827;}
</style>
<g>
	<g>
		<path class="st0" d="M36.3,278.7c0.9-0.8,1.8-1.6,2.7-2.4c17.7-15.5,39.6-27.8,65.1-36.6c31.3-10.8,68.2-16.3,109.6-16.3
			c7.8,0,15.9,0.2,24.2,0.6v-73.8C195.6,150.5,77,162.2,36.3,278.7z"/>
		<polygon class="st1" points="261.9,138.4 261.9,236.6 261.9,290 365.5,189 261.9,87.9 		"/>
		<path class="st2" d="M391,180.4L258.3,50.9c-3.5-3.4-8.6-4.3-13-2.5c-4.4,1.9-7.3,6.2-7.3,11.1v66.7
			c-22.6,0.2-76.3,3.8-126.8,30.5c-29.4,15.6-53.5,36.7-71.6,62.8C17.8,250.7,4.5,289.2,0.1,334c-0.6,6.2,3.7,11.9,9.8,13
			c0.7,0.1,1.4,0.2,2.1,0.2c5.4,0,10.2-3.6,11.6-9c0.1-0.2,6.5-22.8,32.6-45.1c35-30,89.5-45.8,157.6-45.8c7.8,0,15.9,0.2,24.2,0.6
			v70.6c0,4.8,2.9,9.2,7.3,11.1c1.5,0.6,3.1,0.9,4.7,0.9c3.1,0,6.1-1.2,8.4-3.4L391,197.6c2.3-2.3,3.6-5.4,3.6-8.6
			C394.7,185.8,393.4,182.7,391,180.4z M237.9,223.9c-8.2-0.4-16.3-0.6-24.2-0.6c-41.4,0-78.3,5.5-109.6,16.3
			c-25.5,8.8-47.4,21.1-65.1,36.6c-0.9,0.8-1.8,1.6-2.7,2.4C77,162.2,195.6,150.5,237.9,150.1L237.9,223.9L237.9,223.9z M261.9,290
			v-53.4v-98.2V87.9l103.6,101L261.9,290z"/>
	</g>
</g>
</svg>
