<svg id="Capa_1" data-name="Capa 1" xmlns="http://www.w3.org/2000/svg" viewBox="0 0 415.59 415.59"><title>marketing</title><path d="M212.4,209.5L352,342S481,190.52,337,69C330.52,63.53,212.4,209.5,212.4,209.5Z" style="fill:#06baff"/><path d="M207.79,24C106.45,24,24,106.45,24,207.79s82.45,183.8,183.79,183.8,183.79-82.45,183.79-183.8S309.14,24,207.79,24Zm114.71,85-0.1.18c-0.14.28-.29,0.56-0.45,0.83l-72.3,134.7a12,12,0,0,1-4.89,4.89L109.64,322.2l-0.14.08-0.05,0h0a12,12,0,0,1-16-16.36l72.6-135a12,12,0,0,1,4.89-4.89L305.95,93.4A12,12,0,0,1,322.5,109h0Z" style="fill:none"/><polygon points="133.37 282.28 219.17 236.14 179.5 196.47 133.37 282.28" style="fill:none"/><path d="M207.79,0C93.22,0,0,93.22,0,207.79s93.22,207.8,207.79,207.8,207.79-93.22,207.79-207.8S322.37,0,207.79,0Zm0,391.59C106.45,391.59,24,309.14,24,207.79S106.45,24,207.79,24s183.79,82.45,183.79,183.79S309.14,391.59,207.79,391.59Z" style="fill:#292827"/><rect x="198.79" y="17" width="27.21" height="385" transform="translate(198.03 -88.49) rotate(42.63)" style="fill:#292827"/><rect x="267.18" y="168.88" width="27.21" height="212.53" transform="translate(-111.81 295.36) rotate(-47.37)" style="fill:#292827"/></svg>