<svg id="Capa_1" data-name="Capa 1" xmlns="http://www.w3.org/2000/svg" viewBox="0 0 288.78 384.08"><title>marker</title><path d="M178.57,151.36a37.68,37.68,0,1,0,37.68-37.68A37.72,37.72,0,0,0,178.57,151.36Z" transform="translate(-71.86 -14)" style="fill:none"/><path d="M77.8,160.45c0,59.8,92,176.83,138.44,229.65,46.43-52.84,138.45-169.89,138.45-229.65C354.69,84.11,292.58,22,216.24,22S77.8,84.11,77.8,160.45Zm138.44-79a70.93,70.93,0,1,1-70.93,70.93A71,71,0,0,1,216.24,81.44Z" transform="translate(-71.86 -14)" style="fill:#292827"/><path d="M216.24,398.08c3.63-4.77,72.2-91.3,75.88-96.34,45.46-62.19,68.51-110.42,68.51-143.35C360.64,78.77,295.86,14,216.24,14S71.86,78.77,71.86,158.39c0,32.92,23,81.15,68.51,143.35q5.57,7.62,11.08,14.84ZM336.64,158.39c0,52-80,153.76-120.39,199.71C175.86,312.16,95.85,210.4,95.85,158.39A120.39,120.39,0,1,1,336.64,158.39Z" transform="translate(-71.86 -14)" style="fill:none"/><path d="M216.24,213a61.68,61.68,0,1,0-61.68-61.68A61.75,61.75,0,0,0,216.24,213Zm37.68-61.68a37.68,37.68,0,1,1-37.68-37.68A37.72,37.72,0,0,1,253.92,151.36Z" transform="translate(-71.86 -14)" style="fill:none"/></svg>