<?xml version="1.0" encoding="utf-8"?>
<!-- Generator: Adobe Illustrator 19.2.0, SVG Export Plug-In . SVG Version: 6.00 Build 0)  -->
<svg version="1.1" id="medal" xmlns="http://www.w3.org/2000/svg" xmlns:xlink="http://www.w3.org/1999/xlink" x="0px" y="0px"
	 viewBox="0 0 397.9 397.9" style="enable-background:new 0 0 397.9 397.9;" xml:space="preserve">
<style type="text/css">
	.st0{fill:#06BAFF;}
</style>
<polygon class="st0" points="149,11.5 198.5,28.5 247,12.5 268.5,57 314.5,82 300,130 317,178.5 271.5,202.5 246.5,249.5 
	195.5,230.8 148.1,249.5 126.5,203.5 78.5,179 95.5,130 75.5,78.5 128.5,54.5 "/>
<g>
	<path d="M333.6,347.5l-52.9-138.4l40.3-19.2c6.3-2.1,8.4-8.4,6.3-12.6l-16.8-46.2l16.8-46.2c2.1-4.2-2.1-10.5-6.3-12.6l-44.1-21
		l-21-44.1c-2.1-6.3-8.4-8.4-12.6-6.3L197,17.6L150.8,0.8c-4.2-2.1-10.5,2.1-12.6,6.3l-21,44.1l-44.1,21c-6.3,2.1-8.4,8.4-6.3,12.6
		L83.6,131l-16.8,46.2c-2.1,4.2,2.1,10.5,6.3,12.6l39.7,18.9L62.6,345.4c0,4.2,0,8.4,2.1,10.5c2.1,4.2,6.3,4.2,10.5,4.2l50.4-8.4
		l31.5,39.9c2.1,2.1,4.2,4.2,8.4,4.2h2.1c4.2,0,6.3-2.1,8.4-6.3l21.3-57.9l22.8,60c2.1,4.2,4.2,6.3,8.4,6.3h2.1
		c4.2,0,6.3-2.1,8.4-4.2l31.5-39.9l50.4,8.4c4.2,0,8.4-2.1,10.5-4.2C333.6,355.9,335.7,351.7,333.6,347.5L333.6,347.5z M92,86.9
		L131.9,68c2.1,0,4.2-2.1,4.2-4.2L155,23.9l39.9,14.7c2.1,0,4.2,0,6.3,0l39.9-14.7L260,63.8c0,2.1,2.1,4.2,4.2,4.2l39.9,18.9
		l-14.7,39.9c0,2.1,0,4.2,0,6.3l16.3,40.7L265.8,192c-2.1,0-4.2,2.1-4.2,4.2l-20.5,39.9l-39.9-14.7c-2.1,0-2.1,0-4.2,0
		c-2.1,0-2.1,0-2.1,0L155,236.1l-18.9-39.9c0-2.1-2.1-4.2-4.2-4.2L92,173.1l14.7-39.9c0-2.1,0-4.2,0-6.3L92,86.9z M165,367.9
		l-26.8-33.1c-2.1-4.2-6.3-4.2-10.5-4.2L87.8,337l38.9-106.1l11.5,24.2c2.1,6.3,8.4,8.4,12.6,6.3l46.2-16.8l11.3,5.1L165,367.9
		L165,367.9z M310.9,341.1l-41.5-7.9l0,0c-4.2,0-8.4,2.1-10.5,4.2L232.1,372L208,305.3l19-49.7l16.2,5.7c2.1,0,2.1,0,4.2,0
		c2.1,0,6.3-2.1,8.4-6.3l12-25.1"/>
</g>
</svg>
