<svg xmlns="http://www.w3.org/2000/svg" viewBox="0 0 207.79 377.21"><title>mobile</title><path d="M275.12,9.14H120.73C106,9.14,94,21.46,94,36.62V358.91c0,15.15,11.93,27.45,26.7,27.45H275.12c14.75,0,26.7-12.3,26.7-27.45V36.62C301.82,21.46,289.87,9.14,275.12,9.14ZM159.83,25.83H236c1.93,0,3.49,3,3.49,6.61S238,39.07,236,39.07H159.83c-1.94,0-3.48-3-3.48-6.63S157.89,25.83,159.83,25.83Zm38.11,333.41a17.53,17.53,0,1,1,17-17.54C215,351.38,207.31,359.24,197.94,359.24Zm83.88-60.06H114V55.51H281.82V299.18h0Z" transform="translate(-94.03 -9.14)" class="lines"/></svg>