<svg id="Capa_1" data-name="Capa 1" xmlns="http://www.w3.org/2000/svg" viewBox="0 0 410.27 420.55"><title>network</title><path d="M302.75,114.8a52.57,52.57,0,1,0-16.36-41.88c-0.08,1.21-.12,2.44-0.12,3.65A52.1,52.1,0,0,0,302.75,114.8Z" transform="translate(-5.14)" style="fill:none"/><path d="M275.45,119.45a77.12,77.12,0,0,1-11.83-28.75L136.71,152.52a76.7,76.7,0,0,1,16.71,26.37Z" transform="translate(-5.14)" style="fill:none"/><path d="M136.71,258.91l128.88,62.77a76.47,76.47,0,0,1,14.93-27.24l-127.1-61.9A76.76,76.76,0,0,1,136.71,258.91Z" transform="translate(-5.14)" style="fill:none"/><path d="M338.84,291.4A52.57,52.57,0,1,0,391.41,344,52.63,52.63,0,0,0,338.84,291.4Z" transform="translate(-5.14)" style="fill:none"/><path d="M134.28,205.71a52.57,52.57,0,1,0-52.57,52.57A52.63,52.63,0,0,0,134.28,205.71Z" transform="translate(-5.14)" style="fill:#06baff"/><path d="M338.84,267.4a76.08,76.08,0,0,0-38.09,10.19L158.22,208.18c0-.82.06-1.64,0.06-2.46s0-1.65-.06-2.46l134.55-65.53a76.56,76.56,0,1,0-29.49-73.53l-148.66,72.4a76.57,76.57,0,1,0,0,138.26l147.73,71.95A76.56,76.56,0,1,0,338.84,267.4ZM286.39,72.92a52.57,52.57,0,1,1,16.36,41.88,52.1,52.1,0,0,1-16.48-38.23C286.27,75.36,286.31,74.13,286.39,72.92ZM263.62,90.71a77.12,77.12,0,0,0,11.83,28.75l-122,59.44a76.7,76.7,0,0,0-16.71-26.37Zm-234.48,115a52.57,52.57,0,1,1,52.57,52.57A52.63,52.63,0,0,1,29.14,205.71Zm236.45,116L136.71,258.91a76.76,76.76,0,0,0,16.71-26.37l127.1,61.9A76.45,76.45,0,0,0,265.59,321.68Zm73.25,74.87A52.57,52.57,0,1,1,391.41,344,52.63,52.63,0,0,1,338.84,396.55Z" transform="translate(-5.14)" style="fill:#292827"/></svg>