<svg xmlns="http://www.w3.org/2000/svg" viewBox="0 0 371.7 391.7"><title>news</title><rect x="76.43" y="67.6" width="83.25" height="94.7" style="fill:#06baff"/><path d="M369.7,391.7H22a12,12,0,0,1-12-12V12A12,12,0,0,1,22,0H369.7a12,12,0,0,1,12,12V379.7A12,12,0,0,1,369.7,391.7ZM34,367.7H357.7V24H34V367.7Z" transform="translate(-10)" style="fill:#292827"/><path d="M305.2,314.8H86.4a12,12,0,0,1,0-24H305.2A12,12,0,0,1,305.2,314.8Z" transform="translate(-10)" style="fill:#292827"/><path d="M305.2,243.5H86.4a12,12,0,0,1,0-24H305.2A12,12,0,0,1,305.2,243.5Z" transform="translate(-10)" style="fill:#292827"/><path d="M305.2,84.8H213.6a12,12,0,0,1,0-24h91.6A12,12,0,0,1,305.2,84.8Z" transform="translate(-10)" style="fill:#292827"/><path d="M305.2,172.2H213.6a12,12,0,0,1,0-24h91.6A12,12,0,0,1,305.2,172.2Z" transform="translate(-10)" style="fill:#292827"/><path d="M170.7,165.3H83.9a3,3,0,0,1-3-3V70.6a3,3,0,0,1,3-3h86.8a3,3,0,0,1,3,3v91.7A3.07,3.07,0,0,1,170.7,165.3Zm-83.8-5.9h80.8V73.6H86.9v85.8Z" transform="translate(-10)"/></svg>