<?xml version="1.0" encoding="utf-8"?>
<!-- Generator: Adobe Illustrator 19.2.0, SVG Export Plug-In . SVG Version: 6.00 Build 0)  -->
<svg version="1.1" id="Capa_1" xmlns="http://www.w3.org/2000/svg" xmlns:xlink="http://www.w3.org/1999/xlink" x="0px" y="0px"
	 viewBox="0 0 392.3 392.3" style="enable-background:new 0 0 392.3 392.3;" xml:space="preserve">
<style type="text/css">
	.st0{fill:#06BAFF;}
	.st1{fill:#292827;}
</style>
<polygon class="st0" points="291.8,204.8 198.1,292 104.5,204.8 104.5,17.5 291.8,17.5 "/>
<path class="st1" d="M311.7,67.7c0.2-1.3,0.1-48.9,0-60.1c0-3.6-2.9-7.4-6.5-7.5L95.5,0c-4.1,0.2-7.4,4.6-7.3,8.8
	c0,0,0.2,56.1-0.1,58.6L12,111c-7.5,3.8-12,8.4-12,15v244.6c0,12,9.7,21.7,21.7,21.7h348.9c12,0,21.7-9.7,21.7-21.7v-237
	c0-4.8-2.3-9.2-6.2-12l-7.9-6.4c-0.1-0.1-0.1-0.1-0.2-0.2C378,115,311.7,67.9,311.7,67.7z M24,153.5v107.4 M40.4,122.4l69-41.8
	c1.5-0.9,2.5-2.5,2.5-4.3l0.4-48.1c0-3.5,2.7-5,6.8-4.7c0.5,0,163.5,0,163.5,0c2.5,0,4.5,2,4.6,4.5l0.2,48.5c0,1.4,1.3,2.7,2.5,3.5
	l60.1,42.8c3.2,1.5,3.9,5.9,1.3,8.3L199.6,276.9c-1.9,1.8-4.9,1.8-6.9,0L39.5,130.5C37,128.2,37.4,124.1,40.4,122.4z M33.7,368.3
	c-5.4,0-9.7-4.3-9.7-9.7v-64.7l0.3-123c0-8.5,10.3-12.9,16.4-7L188,305.3c2.3,2.1,5.2,3.2,8.2,3.2c2.9,0,5.9-1.1,8.2-3.2
	l147.4-141.5c6.2-5.9,16.4-1.6,16.4,7l0.1,187.8c0,5.4-4.3,9.7-9.7,9.7H33.7z"/>
<rect x="87.3" y="70.3" class="st1" width="24.6" height="132.7"/>
<rect x="287.3" y="69.3" class="st1" width="24.6" height="132.7"/>
<g>
	<path class="st1" d="M266.3,75.3H132.8c-4,0-7.3-5.4-7.3-12c0-6.6,3.3-12,7.3-12h133.6c4,0,7.3,5.4,7.3,12
		C273.7,70,270.4,75.3,266.3,75.3z"/>
</g>
<g>
	<path class="st1" d="M266.3,132.3H132.8c-4,0-7.3-5.4-7.3-12c0-6.6,3.3-12,7.3-12h133.6c4,0,7.3,5.4,7.3,12
		C273.7,127,270.4,132.3,266.3,132.3z"/>
</g>
<g>
	<path class="st1" d="M266.3,185.3H132.8c-4,0-7.3-5.4-7.3-12c0-6.6,3.3-12,7.3-12h133.6c4,0,7.3,5.4,7.3,12
		C273.7,180,270.4,185.3,266.3,185.3z"/>
</g>
</svg>
