<svg xmlns="http://www.w3.org/2000/svg" viewBox="0 0 394.66 299.71"><title>next</title><path d="M36.28,278.65q1.33-1.22,2.72-2.44c17.69-15.52,39.6-27.85,65.1-36.64,31.29-10.79,68.17-16.25,109.61-16.25,7.84,0,15.93.2,24.16,0.59V150.13C195.59,150.47,77,162.22,36.28,278.65Z" transform="translate(0 -47.48)" style="fill:none"/><polygon points="261.88 90.91 261.88 189.15 261.88 242.55 365.48 141.51 261.88 40.47 261.88 90.91" style="fill:#06baff"/><path d="M391,180.4L258.26,50.89a12,12,0,0,0-20.38,8.59v66.65c-22.63.18-76.31,3.76-126.79,30.52-29.38,15.58-53.47,36.71-71.61,62.81C17.78,250.68,4.52,289.2.06,334a12,12,0,0,0,23.54,4.28c0.06-.23,6.49-22.85,32.56-45.13,35-30,89.52-45.79,157.56-45.79,7.82,0,15.92.22,24.16,0.63V318.5a12,12,0,0,0,20.38,8.59L391,197.58A12,12,0,0,0,391,180.4ZM237.88,223.9c-8.24-.39-16.32-0.59-24.16-0.59-41.44,0-78.32,5.47-109.61,16.25C78.6,248.36,56.7,260.69,39,276.21q-1.4,1.22-2.72,2.44C77,162.22,195.59,150.47,237.88,150.13V223.9h0Zm24,66.13V87.95l103.6,101Z" transform="translate(0 -47.48)" style="fill:#292827"/></svg>