<?xml version="1.0" encoding="utf-8"?>
<!-- Generator: Adobe Illustrator 19.2.0, SVG Export Plug-In . SVG Version: 6.00 Build 0)  -->
<svg version="1.1" id="Capa_1" xmlns="http://www.w3.org/2000/svg" xmlns:xlink="http://www.w3.org/1999/xlink" x="0px" y="0px"
	 viewBox="0 0 391.7 391.7" style="enable-background:new 0 0 391.7 391.7;" xml:space="preserve">
<style type="text/css">
	.st0{fill:#292827;}
</style>
<g>
	<g>
		<g>
			<path class="st0" d="M369.7,391.7H22c-6.6,0-12-5.4-12-12V12c0-6.6,5.4-12,12-12h347.7c6.6,0,12,5.4,12,12v367.7
				C381.7,386.3,376.3,391.7,369.7,391.7z M34,367.7h323.7V24H34V367.7z"/>
		</g>
		<g>
			<path class="st0" d="M305.2,100.9H86.4c-6.6,0-12-5.4-12-12c0-6.6,5.4-12,12-12h218.8c6.6,0,12,5.4,12,12
				C317.2,95.5,311.9,100.9,305.2,100.9z"/>
		</g>
		<g>
			<path class="st0" d="M305.2,172.2H86.4c-6.6,0-12-5.4-12-12c0-6.6,5.4-12,12-12h218.8c6.6,0,12,5.4,12,12
				C317.2,166.8,311.9,172.2,305.2,172.2z"/>
		</g>
		<g>
			<path class="st0" d="M305.2,243.5H86.4c-6.6,0-12-5.4-12-12c0-6.6,5.4-12,12-12h218.8c6.6,0,12,5.4,12,12
				C317.2,238.1,311.9,243.5,305.2,243.5z"/>
		</g>
		<g>
			<path class="st0" d="M178,314.8H86.4c-6.6,0-12-5.4-12-12c0-6.6,5.4-12,12-12H178c6.6,0,12,5.4,12,12
				C190,309.4,184.6,314.8,178,314.8z"/>
		</g>
	</g>
</g>
</svg>
