<svg xmlns="http://www.w3.org/2000/svg" viewBox="0 0 652.73 591.18"><style>.background{fill:none}.filler{fill:#06baff}.lines{fill:#292827}</style><title>people</title><path class="lines" d="M228.23,342.64c-15.82-11.17-18.39-8.78-27.15-11.69,2.42-2.21,74.92-37.41,74.92-37.41a13.47,13.47,0,0,0,7.36-14.71c-0.33-1.44-4.41-21.63-24-56.47-24.09-43.05-71.65-67.54-103.07-67.25-37.83.35-84.54,19.35-111.33,67.25-3.65,4.42-17.42,33.05-21.2,49.36C19.2,291.56,20.53,287,24.93,292l81,38.64C84.56,334.52,57.84,350.36,48,357.33c-29.54,21-45,50.92-45,81.34a13.27,13.27,0,0,0,13.18,13.27H239.62c-7.06-21.21-7.18-42.09-7.18-49.39-0.11-30.42,12.76-47.92-4.21-59.91h0ZM30.82,425.5c4-16.7,15.38-32.3,33.06-44.8,23.72-16.81,55.57-26.1,89.51-26.1s44.33-1.6,68.05,15.21c-12,13.76-7.21,39-3.26,55.69H30.82ZM153.39,180.93c61.36-.77,96.12,64.06,104.57,93.15l-27.47,14A107,107,0,0,0,234.12,260a13.27,13.27,0,0,0-13.18-13.27c-7.25,0-11.65,6-11.65,13.27,0,18.36-8.22,34.27-17.78,46.54-0.33.33-23.29,18.18-38.23,18.18s-29.87-8.32-39.75-20.38C113.31,304.06,98,278.39,98,260c0-7.3-5.17-13.27-12.42-13.27A13.27,13.27,0,0,0,72.45,260a111.17,111.17,0,0,0,3.62,28.09l-27.47-14c8.57-29,39.69-92.33,104.79-93.15h0ZM-32.11,47.22h0Z" transform="translate(45.7 -47.22)" /><path class="filler" d="M227.77,368.57C203.53,350.07,189.82,347,155.11,347S88.06,357.29,63.82,375.7C45.09,390,33.24,407.82,29.49,426.9H219.87c-3.82-19.07-.34-53.55,7.89-58.33h0Z" transform="translate(45.7 -47.22)" /><path class="filler" d="M545.49,375.53c-25-17.65-58.39-27.34-94.16-27.34S410,345.5,385,363.07c0.45-.32,9.27,37.35,9.27,37.35l-1,24H509.56V402.16a12.45,12.45,0,1,1,24.9,0v22.22H581c-3.94-18.2-16.23-35.22-35.54-48.85h0Z" transform="translate(45.7 -47.22)" /><path class="lines" d="M559.83,354.65c-16.94-12-37.11-20.8-59-26.08,20.33-17.57,33.49-45.78,33.49-77.46,0-53.19-37.19-96.52-83-96.52s-83,43.26-83,96.52c0,31.68,13.16,59.8,33.49,77.46-21.9,5.28-14.28,1.65-31.22,13.62-1.24.88,19.41,28.39,19.41,59.51,0,6.86-5.43,46-7.2,47H594.58A12.48,12.48,0,0,0,607,436.21c0-31.12-16.78-60.12-47.2-81.55h0ZM534.3,423.84V401.62a12.45,12.45,0,0,0-24.9,0v22.22H406.2l1-30.67c3.86-18.2-14.38-43.24-8.71-39.27,1.21,0.85,17.18-6.26,52.95-6.26s69.18,9.69,94.16,27.34c19.3,13.63,31.52,30.65,35.38,48.85H534.3Zm-141-172.72c0-39.56,26.08-71.7,58.07-71.7s58.15,32.15,58.15,71.7-26.08,71.7-58.07,71.7S393.26,290.67,393.26,251.12Z" transform="translate(45.7 -47.22)" /><path class="filler" d="M427.38,550.63c-29.41-20.78-68.75-32.19-110.87-32.19s-81.37,11.51-110.78,32.19c-22.73,16.05-37.11,36.09-41.66,57.52h54.83V582a14.66,14.66,0,0,1,29.32,0v26.16H385.08V582a14.66,14.66,0,0,1,29.32,0v26.16h54.83c-4.64-21.43-19.11-41.47-41.84-57.52h0Z" transform="translate(45.7 -47.22)" /><path class="lines" d="M444.27,527.71c-19.95-14.1-43.7-24.49-69.49-30.71,23.94-20.69,39.43-53.9,39.43-91.2,0-62.63-43.79-113.65-97.7-113.65s-97.7,50.93-97.7,113.65c0,37.3,15.49,70.42,39.43,91.2-25.79,6.22-49.54,16.61-69.49,30.71-35.81,25.23-55.57,59.38-55.57,96a14.69,14.69,0,0,0,14.66,14.66H485.18a14.69,14.69,0,0,0,14.66-14.66C499.84,587.09,480.08,552.95,444.27,527.71Zm-30.06,81.46V583a14.66,14.66,0,1,0-29.32,0v26.16H248.14V583a14.66,14.66,0,1,0-29.32,0v26.16H164.08c4.55-21.43,18.93-41.47,41.66-57.52,29.41-20.78,68.75-32.19,110.87-32.19s81.46,11.41,110.87,32.19c22.73,16.05,37.11,36.09,41.66,57.52H414.21ZM248.14,405.8c0-46.58,30.71-84.43,68.38-84.43S385,359.23,385,405.8s-30.71,84.43-68.38,84.43S248.14,452.38,248.14,405.8Z" transform="translate(45.7 -47.22)" /></svg>








