<?xml version="1.0" encoding="utf-8"?>
<!-- Generator: Adobe Illustrator 19.2.0, SVG Export Plug-In . SVG Version: 6.00 Build 0)  -->
<svg version="1.1" id="Capa_1" xmlns="http://www.w3.org/2000/svg" xmlns:xlink="http://www.w3.org/1999/xlink" x="0px" y="0px"
	 viewBox="0 0 432.1 432.1" style="enable-background:new 0 0 432.1 432.1;" xml:space="preserve">
<style type="text/css">
	.st0{fill:none;}
	.st1{fill:#06BAFF;}
	.st2{fill:#292827;}
</style>
<g>
	<g>
		<path class="st0" d="M216.4,247.2c40.7,0,73.7-40.8,73.7-91c0-50.2-33.1-91-73.8-91s-73.7,40.8-73.7,91
			C142.7,206.4,175.8,247.2,216.4,247.2z"/>
		<path class="st1" d="M335.9,313.4c-31.7-22.4-74.1-34.7-119.5-34.7S128.7,291.1,97,313.4c-24.5,17.3-40,38.9-44.9,62h59.1v-28.2
			c0-8.7,7.1-15.8,15.8-15.8s15.8,7.1,15.8,15.8v28.2h147.5v-28.2c0-8.7,7.1-15.8,15.8-15.8c8.7,0,15.8,7.1,15.8,15.8v28.2h59.1
			C376,352.3,360.4,330.7,335.9,313.4z"/>
		<path class="st2" d="M354.1,288.7c-21.5-15.2-47.1-26.4-74.9-33.1c25.8-22.3,42.5-58.1,42.5-98.3c0-67.5-47.2-122.5-105.3-122.5
			c-58,0-105.3,54.9-105.3,122.5c0,40.2,16.7,75.9,42.5,98.3c-27.8,6.7-53.4,17.9-74.9,33.1c-38.6,27.2-59.9,64-59.9,103.5
			c0,8.7,7.1,15.8,15.8,15.8h363.6c8.7,0,15.8-7.1,15.8-15.8C414,352.7,392.7,315.9,354.1,288.7z M321.7,376.5v-28.2
			c0-8.7-7.1-15.8-15.8-15.8c-8.7,0-15.8,7.1-15.8,15.8v28.2H142.7v-28.2c0-8.7-7.1-15.8-15.8-15.8s-15.8,7.1-15.8,15.8v28.2H52.1
			c4.9-23.1,20.4-44.7,44.9-62c31.7-22.4,74.1-34.7,119.5-34.7s87.8,12.3,119.5,34.7c24.5,17.3,40,38.9,44.9,62H321.7z M142.7,157.3
			c0-50.2,33.1-91,73.7-91c40.7,0,73.8,40.8,73.8,91c0,50.2-33.1,91-73.7,91S142.7,207.5,142.7,157.3z"/>
	</g>
</g>
</svg>
