<svg xmlns="http://www.w3.org/2000/svg" viewBox="0 0 429.28 407.85"><title>printer</title><rect x="113.16" y="24" width="202.96" height="114.95" style="fill:none"/><path d="M405.28,198.48a24.83,24.83,0,0,0-24.8-24.8H48.81A24.83,24.83,0,0,0,24,198.48v8H405.28v-8Zm-21.16.07a12,12,0,1,1,3.52-8.49A12.09,12.09,0,0,1,384.12,198.54Z" transform="translate(0 -10.72)" class="background"/><path d="M110.85,394.56H318.43v-128H110.85v128ZM142,292.91H282.51a12,12,0,1,1,0,24H142A12,12,0,0,1,142,292.91Zm0,51.28h65.64a12,12,0,1,1,0,24H142A12,12,0,0,1,142,344.19Z" transform="translate(0 -10.72)" class="background"/><path d="M24,327.51a24.83,24.83,0,0,0,24.81,24.8h38V254.53a12,12,0,0,1,12-12H330.43a12,12,0,0,1,12,12v97.78h38a24.83,24.83,0,0,0,24.8-24.8V230.44H24v97.07Z" transform="translate(0 -10.72)" class="background"/><path d="M380.48,149.67H340.12v-127a12,12,0,0,0-12-12h-227a12,12,0,0,0-12,12v127H48.81A48.86,48.86,0,0,0,0,198.48v129a48.86,48.86,0,0,0,48.81,48.8h38v30.25a12,12,0,0,0,12,12H330.43a12,12,0,0,0,12-12V376.31h38a48.86,48.86,0,0,0,48.8-48.8v-129A48.86,48.86,0,0,0,380.48,149.67Zm24.8,177.84a24.83,24.83,0,0,1-24.8,24.8h-38V254.53a12,12,0,0,0-12-12H98.85a12,12,0,0,0-12,12v97.78h-38A24.83,24.83,0,0,1,24,327.51V230.44H405.28v97.07ZM113.16,34.72h203v115h-203v-115ZM24,198.48a24.83,24.83,0,0,1,24.81-24.8H380.48a24.83,24.83,0,0,1,24.8,24.8v8H24v-8ZM318.43,394.56H110.85v-128H318.43v128Z" transform="translate(0 -10.72)" class="filler"/><path d="M375.64,178.05a12,12,0,1,0,8.48,3.52A12.08,12.08,0,0,0,375.64,178.05Z" transform="translate(0 -10.72)" class="filler"/><path d="M142,316.91H282.51a12,12,0,1,0,0-24H142A12,12,0,0,0,142,316.91Z" transform="translate(0 -10.72)" class="filler"/><path d="M142,368.19h65.64a12,12,0,1,0,0-24H142A12,12,0,0,0,142,368.19Z" transform="translate(0 -10.72)" class="filler"/></svg>