<?xml version="1.0" encoding="utf-8"?>
<!-- Generator: Adobe Illustrator 19.2.0, SVG Export Plug-In . SVG Version: 6.00 Build 0)  -->
<svg version="1.1" id="Capa_1" xmlns="http://www.w3.org/2000/svg" xmlns:xlink="http://www.w3.org/1999/xlink" x="0px" y="0px"
	 viewBox="0 0 432.5 432.5" style="enable-background:new 0 0 432.5 432.5;" xml:space="preserve">
<style type="text/css">
	.st0{fill:none;}
	.st1{fill:#06BAFF;}
	.st2{fill:#292827;}
</style>
<g>
	<g>
		<path class="st0" d="M178.6,137.4c0,20.8,16.9,37.7,37.7,37.7s37.7-16.9,37.7-37.7c0-20.8-16.9-37.7-37.7-37.7
			S178.6,116.6,178.6,137.4z"/>
		<path class="st0" d="M225.1,370.2c-2.3,2.5-5.5,3.9-8.9,3.9c-3.4,0-6.6-1.4-8.9-3.9c-1-1.1-18.3-20-40.3-47.6l-99.6,34.1
			l148.5,51.1L365,356.7l-99.5-34.2C243.4,350.1,226.1,369.1,225.1,370.2z"/>
		<path class="st1" d="M95.9,144.4c0,52,80,153.8,120.4,199.7c40.4-46,120.4-147.7,120.4-199.7C336.6,78,282.6,24,216.2,24
			S95.9,78,95.9,144.4z M216.2,75.7c34,0,61.7,27.7,61.7,61.7S250.3,199,216.2,199s-61.7-27.7-61.7-61.7S182.2,75.7,216.2,75.7z"/>
		<path class="st2" d="M405.9,345.4l-124.8-42.9c3.6-4.8,7.3-9.7,11-14.7c45.5-62.2,68.5-110.4,68.5-143.3
			C360.6,64.8,295.9,0,216.2,0S71.9,64.8,71.9,144.4c0,32.9,23,81.2,68.5,143.3c3.7,5.1,7.4,10,11.1,14.8L26.6,345.4
			c-4.8,1.7-8.1,6.2-8.1,11.3c0,5.1,3.3,9.7,8.1,11.4L212,431.8c1.3,0.4,2.6,0.7,3.9,0.7c1.3,0,2.6-0.2,3.9-0.6l186.1-63.8
			c4.8-1.7,8.1-6.2,8.1-11.3C414,351.6,410.7,347,405.9,345.4z M336.6,144.4c0,52-80,153.8-120.4,199.7
			C175.9,298.2,95.9,196.4,95.9,144.4C95.9,78,149.9,24,216.2,24S336.6,78,336.6,144.4z M215.9,407.8L67.4,356.7l99.6-34.1
			c22,27.6,39.3,46.5,40.3,47.6c2.3,2.5,5.5,3.9,8.9,3.9c3.4,0,6.6-1.4,8.9-3.9c1-1.1,18.4-20.1,40.4-47.7l99.5,34.2L215.9,407.8z"
			/>
		<path class="st2" d="M216.2,199c34,0,61.7-27.7,61.7-61.7s-27.7-61.7-61.7-61.7s-61.7,27.7-61.7,61.7S182.2,199,216.2,199z
			 M253.9,137.4c0,20.8-16.9,37.7-37.7,37.7s-37.7-16.9-37.7-37.7c0-20.8,16.9-37.7,37.7-37.7S253.9,116.6,253.9,137.4z"/>
	</g>
</g>
</svg>
