<?xml version="1.0" encoding="utf-8"?>
<!-- Generator: Adobe Illustrator 19.2.0, SVG Export Plug-In . SVG Version: 6.00 Build 0)  -->
<svg version="1.1" id="Capa_1" xmlns="http://www.w3.org/2000/svg" xmlns:xlink="http://www.w3.org/1999/xlink" x="0px" y="0px"
	 viewBox="0 0 391.7 391.7" style="enable-background:new 0 0 391.7 391.7;" xml:space="preserve">
<style type="text/css">
	.st0{fill:#06BAFF;}
	.st1{fill:#292827;}
	.st2{fill:#06BAFF;stroke:#000000;stroke-width:13;stroke-miterlimit:10;}
	.st3{fill:#292827;stroke:#000000;stroke-width:14;stroke-miterlimit:10;}
</style>
<rect x="83.3" y="68.2" class="st0" width="72.7" height="82.7"/>
<g>
	<g>
		<g>
			<path class="st1" d="M369.7,391.7H22c-6.6,0-12-5.4-12-12V12c0-6.6,5.4-12,12-12h347.7c6.6,0,12,5.4,12,12v367.7
				C381.7,386.3,376.3,391.7,369.7,391.7z M34,367.7h323.7V24H34V367.7z"/>
		</g>
	</g>
</g>
<path class="st2" d="M262.9,200.3h5.3c0,0,10.6-2.6,13.2-5.3c2.6-2.6,10.6-23.7,10.6-23.7s2.6-2.6,5.3-2.6s2.6-7.9,2.6-7.9
	s0-2.6-2.6-2.6s0-5.3,0-5.3s5.3-5.3,7.9-2.6c2.6,2.6,0,2.6,2.6,5.3c2.6,0,5.3-2.6,5.3-5.3c0-2.6-2.6-2.6-2.6-5.3s5.3-5.3,5.3-5.3
	s0-5.3,0-7.9c0,0,5.3-7.9,2.6-10.6c-2.6-2.6-2.6-2.6-5.3-2.6h-7.9c0,0-2.6,2.6-2.6,5.3c0,2.6-18.5-2.6-21.1-5.3
	c-2.6-2.6-5.3-7.9-5.3-10.6s-2.6-10.6-2.6-10.6c-2.6,0-7.9-10.6-10.6-5.3c-2.6,2.6-5.3,2.6-5.3,0s0-5.3,0-7.9s-2.6-10.6-2.6-10.6
	s-2.6-5.3-5.3-7.9c-5.3-2.6-7.9-5.3-10.6-2.6c-2.6,2.6-7.9-5.3-7.9-5.3c0-2.6,0-5.3-2.6-2.6c-2.6,0-7.9,0-5.3,5.3
	c10.6,15.8,21.1,29,21.1,29v5.3c0,0,5.3,7.9,5.3,10.6c0,2.6,5.3,10.6,5.3,10.6c0,2.6-5.3,21.1-5.3,21.1s-13.2,2.6-10.6,7.9
	c2.6,5.3,0,5.3,7.9,10.6c7.9,2.6,18.5,7.9,15.8,15.8c0,13.2-2.6,15.8-2.6,15.8S254.9,195.1,262.9,200.3"/>
<path class="st2" d="M247,210.9c0,0,2.6-10.6,0-10.6c-2.6,0-5.3,2.6-5.3,2.6c0-2.6,2.6-2.6,2.6-2.6v-2.6v-2.6l-2.6-5.3
	c-2.6,0-5.3,5.3-5.3,5.3l-2.6,2.6h-7.9c0,0,0-2.6,0-5.3c0-5.3-2.6-5.3-7.9-5.3c-2.6,0,0-2.6,0-5.3c0-2.6-5.3,0-5.3,0
	s-5.3,5.3-7.9,7.9c-2.6,2.6,0,7.9-2.6,10.6c-2.6,2.6-2.6,5.3-5.3,5.3s-5.3,0-5.3,2.6c0,2.6-2.6,13.2-5.3,21.1
	c-2.6,5.3-7.9,7.9-7.9,7.9l-7.9,7.9c0,0-2.6,0-7.9,5.3c-5.3,5.3-2.6,5.3-7.9,5.3c-2.6,0-5.3,0-5.3,2.6c0,0-2.6,2.6-2.6,5.3
	c0,2.6-5.3,2.6-7.9,5.3c-2.6,2.6-7.9,7.9-10.6,10.6c-2.6,2.6-5.3,7.9-5.3,10.6c0,2.6-5.3,5.3-2.6,13.2c2.6,7.9,13.2,2.6,15.8,2.6
	s2.6,5.3,5.3,5.3c2.6,0,7.9,2.6,7.9,2.6c7.9,5.3,7.9,5.3,10.6,5.3c2.6,0,10.6,0,13.2-2.6c2.6-2.6,7.9-7.9,7.9-7.9s0-2.6,2.6-5.3
	l7.9-2.6c0,0,0-2.6,0-5.3s2.6-5.3,2.6-5.3s0-2.6,0-5.3c0-2.6,0-2.6,0-2.6s2.6,0,2.6-2.6s-2.6-7.9,0-10.6c2.6-2.6,2.6-2.6,7.9-5.3
	c2.6-2.6,7.9-5.3,10.6-7.9c2.6,0,2.6,0,5.3,2.6c0,0,2.6,2.6,5.3,0c2.6,0,2.6-2.6,2.6-5.3l-2.6-5.3c0,0-2.6,0-2.6-2.6
	c0,0,0-5.3,2.6-5.3c2.6,0,7.9-2.6,7.9-5.3c0,0,0-7.9,2.6-7.9c7.9-5.3,7.9-7.9,7.9-7.9S247,213.5,247,210.9"/>
<path class="st2" d="M130.9,324.3l2.6,2.6c0,2.6,2.6,5.3,0,5.3c-2.6,0-2.6,2.6-5.3,2.6s-2.6,0-5.3,0c0,2.6-2.6,2.6-2.6,2.6
	c-2.6,0-2.6-2.6-2.6-2.6l2.6-5.3c0,0,0-2.6,0-5.3c0-2.6,2.6-2.6,2.6-2.6L130.9,324.3z"/>
<g>
	<path class="st3" d="M164.7,158.3H77.9c-1.7,0-3-1.3-3-3V63.6c0-1.7,1.3-3,3-3h86.8c1.7,0,3,1.3,3,3v91.7
		C167.6,157,166.3,158.3,164.7,158.3z M80.9,152.4h80.8V66.6H80.9V152.4z"/>
</g>
</svg>
