<svg xmlns="http://www.w3.org/2000/svg" viewBox="0 0 370.96 391.7"><title>report</title><rect x="44.83" y="217.8" width="83.25" height="91.8" style="fill:#06baff"/><path d="M355.2,24.53H322.09a6.13,6.13,0,1,0,0,12.27H333.5a25.2,25.2,0,0,0-3.64,13.08V347.14a6.13,6.13,0,0,0,12.27,0V49.88a13.08,13.08,0,1,1,26.16,0V347.14a32.3,32.3,0,0,1-64.6,0V6.13A6.13,6.13,0,0,0,297.56,0H15.73A6.13,6.13,0,0,0,9.59,6.13v341A44.62,44.62,0,0,0,54.16,391.7H336a44.62,44.62,0,0,0,44.56-44.56V49.88A25.38,25.38,0,0,0,355.2,24.53ZM58.08,369.69c-25.88,0-28.55-13.7-28.55-30.55V22h253V339.15c0,12,.66,22.86,8.74,30.55H58.08Z" transform="translate(-9.59)"/><path d="M258.89,241.8H176.38c-5.94,0-10.81-5.4-10.81-12s4.86-12,10.81-12h82.51c5.94,0,10.81,5.4,10.81,12S264.92,241.8,258.89,241.8Z" transform="translate(-9.59)" style="fill:#292827"/><path d="M258.89,315.2H176.38c-5.94,0-10.81-5.4-10.81-12s4.86-12,10.81-12h82.51c5.94,0,10.81,5.4,10.81,12S264.92,315.2,258.89,315.2Z" transform="translate(-9.59)" style="fill:#292827"/><path d="M254.89,163.4H57.81c-5.94,0-10.81-5.4-10.81-12s4.86-12,10.81-12H254.89c5.94,0,10.81,5.4,10.81,12S260.92,163.4,254.89,163.4Z" transform="translate(-9.59)" style="fill:#292827"/><path d="M141.23,314H54.43a3,3,0,0,1-3-3V219.3a3,3,0,0,1,3-3h86.8a3,3,0,0,1,3,3V311A3.07,3.07,0,0,1,141.23,314Zm-83.8-5.9h80.8V222.3H57.43v85.8Z" transform="translate(-9.59)"/><path d="M254.89,92.1H57.81C51.86,92.1,47,86.7,47,80.1s4.86-12,10.81-12H254.89c5.94,0,10.81,5.4,10.81,12S260.92,92.1,254.89,92.1Z" transform="translate(-9.59)" style="fill:#292827"/></svg>