<svg id="Capa_1" data-name="Capa 1" xmlns="http://www.w3.org/2000/svg" viewBox="0 0 423.61 423.61"><title>research</title><path d="M218.57,218.57a89,89,0,1,0-62.93,26.07A89.1,89.1,0,0,0,218.57,218.57ZM107.29,119.75a12,12,0,0,1,0-17,67.93,67.93,0,0,1,48.35-20h0a67.93,67.93,0,0,1,48.35,20,12,12,0,0,1-17,17,44.38,44.38,0,0,0-62.76,0A12,12,0,0,1,107.29,119.75Z" transform="translate(0)" style="fill:none"/><path d="M291.48,231.64l98.46,98.59V71.94H286.87A156.2,156.2,0,0,1,291.48,231.64Z" transform="translate(0)" style="fill:none"/><path d="M155.64,311.28a154.58,154.58,0,0,1-83.7-24.37v103H330.2l-98.65-98.36A154.77,154.77,0,0,1,155.64,311.28ZM254.71,352a12,12,0,0,1-12,12H107.59a12,12,0,1,1,0-24H242.71A12,12,0,0,1,254.71,352Z" transform="translate(0)" style="fill:none"/><path d="M394.43,368.69L277.88,252A156.37,156.37,0,0,1,265.7,265.7,158,158,0,0,1,251.89,278L368.67,394.41l0.27,0.25a18.19,18.19,0,0,0,25.72-25.73Z" transform="translate(0)" style="fill:#06baff"/><path d="M248.73,248.73c51.32-51.33,51.32-134.84,0-186.17A131.64,131.64,0,1,0,62.56,248.73,131.64,131.64,0,0,0,248.73,248.73ZM42.65,155.64a113,113,0,1,1,33.1,79.9A112.26,112.26,0,0,1,42.65,155.64Z" transform="translate(0)" style="fill:#06baff"/><path d="M235.54,235.54a113,113,0,1,0-79.9,33.1A113.13,113.13,0,0,0,235.54,235.54Zm-168.9-79.9a89,89,0,1,1,26.07,62.93A88.42,88.42,0,0,1,66.65,155.64Z" transform="translate(0)" style="fill:#292827"/><path d="M187,119.75a12,12,0,0,0,17-17,67.94,67.94,0,0,0-48.35-20h0a67.93,67.93,0,0,0-48.35,20,12,12,0,0,0,17,17A44.38,44.38,0,0,1,187,119.75Z" transform="translate(0)" style="fill:#292827"/><path d="M413.94,354.53V59.94a12,12,0,0,0-12-12H268q-1.14-1.19-2.3-2.36A155.64,155.64,0,1,0,45.59,265.7c0.78,0.78,1.56,1.54,2.35,2.3V401.94a12,12,0,0,0,12,12H354.53A42.19,42.19,0,0,0,413.94,354.53Zm-19.57,39.85a18.29,18.29,0,0,1-25.44.28l-0.27-.25L251.89,278A158.17,158.17,0,0,0,265.7,265.7,156.37,156.37,0,0,0,277.88,252L394.43,368.69l0.22,0.24A18.3,18.3,0,0,1,394.38,394.38ZM389.94,71.94V330.23l-98.46-98.59a156.2,156.2,0,0,0-4.61-159.7H389.94ZM24,155.64A131.64,131.64,0,0,1,248.73,62.56c51.32,51.33,51.32,134.84,0,186.17A131.64,131.64,0,0,1,24,155.64Zm47.94,234.3v-103a156,156,0,0,0,159.61,4.67l98.65,98.36H71.94Z" transform="translate(0)" style="fill:#292827"/></svg>