<svg id="return" xmlns="http://www.w3.org/2000/svg" viewBox="0 0 394.7 394.7"><title>return</title><polygon points="132.8 87.9 29.2 189 132.8 290 132.8 236.6 132.8 138.4 132.8 87.9" style="fill:#06baff;" /><path d="M0,189a12.2,12.2,0,0,0,3.6,8.6L136.4,327.1a12.14,12.14,0,0,0,8.4,3.4,12.67,12.67,0,0,0,4.7-.9,12,12,0,0,0,7.3-11.1V247.9c8.2-.4,16.3-.6,24.2-.6,68,0,122.5,15.8,157.6,45.8,26.1,22.3,32.5,44.9,32.6,45.1a12,12,0,0,0,11.6,9,14.92,14.92,0,0,0,2.1-.2,12,12,0,0,0,9.8-13c-4.5-44.8-17.7-83.3-39.4-114.5-18.1-26.1-42.2-47.2-71.6-62.8-50.5-26.8-104.2-30.3-126.8-30.5V59.5a12.15,12.15,0,0,0-7.3-11.1,11.84,11.84,0,0,0-13,2.5L3.6,180.4A12.2,12.2,0,0,0,0,189Zm156.8,34.9V150.1c42.3.3,160.9,12.1,201.6,128.5l-2.7-2.4c-17.7-15.5-39.6-27.8-65.1-36.6-31.3-10.8-68.2-16.3-109.6-16.3-7.9,0-16,.2-24.2.6ZM29.2,189,132.8,88V290Z" style="fill:#292827;"/></svg>