<svg id="Capa_1" data-name="Capa 1" xmlns="http://www.w3.org/2000/svg" viewBox="0 0 423.54 423.61"><title>search</title><path d="M253.64,57.61A138.64,138.64,0,0,0,57.58,253.67a138.63,138.63,0,0,0,196.06,0C307.7,199.62,307.7,111.66,253.64,57.61ZM232.82,232.85a109.19,109.19,0,1,1,0-154.42A108.47,108.47,0,0,1,232.82,232.85Z" transform="translate(-0.04)" style="fill:#292827"/><path d="M218.54,92.71a89,89,0,1,0,0,125.86A88.41,88.41,0,0,0,218.54,92.71Z" transform="translate(-0.04)" style="fill:none"/><path d="M290.77,264.93L277.84,252a156.39,156.39,0,0,1-12.18,13.71A158.27,158.27,0,0,1,251.85,278l12,11.92Z" transform="translate(-0.04)" style="fill:none"/><path d="M394.4,368.69l-86.65-86.77-26.92,24.93,87.81,87.55,0.27,0.25a18.19,18.19,0,0,0,25.72-25.73Z" transform="translate(-0.04)" style="fill:#292827"/><path d="M412.42,352.83c-0.2-.24-0.41-0.47-0.64-0.69L291.45,231.64C324.57,172.38,316,95.9,265.66,45.59a155.64,155.64,0,0,0-220.11,0c-60.68,60.68-60.68,159.43,0,220.11a155.83,155.83,0,0,0,186,25.89l120.6,120.24q0.34,0.34.71,0.65A42.19,42.19,0,0,0,412.42,352.83Zm-18.08,41.55a18.29,18.29,0,0,1-25.44.28l-0.27-.25-87.81-87.55,26.92-24.93,86.65,86.77,0.22,0.24A18.3,18.3,0,0,1,394.34,394.38ZM155.61,287.28a130.78,130.78,0,0,1-93.08-38.56C11.2,197.4,11.2,113.88,62.52,62.56a131.64,131.64,0,0,1,186.17,0c51.33,51.32,51.33,134.84,0,186.17A130.78,130.78,0,0,1,155.61,287.28ZM265.66,265.7A156.39,156.39,0,0,0,277.84,252l12.93,12.95-27,25-12-11.92A158,158,0,0,0,265.66,265.7Z" transform="translate(-0.04)" style="fill:#292827"/></svg>