<?xml version="1.0" encoding="utf-8"?>
<!-- Generator: Adobe Illustrator 19.2.0, SVG Export Plug-In . SVG Version: 6.00 Build 0)  -->
<svg version="1.1" id="Capa_1" xmlns="http://www.w3.org/2000/svg" xmlns:xlink="http://www.w3.org/1999/xlink" x="0px" y="0px"
	 viewBox="0 0 393.3 393.3" style="enable-background:new 0 0 393.3 393.3;" xml:space="preserve">
<style type="text/css">
	.st0{fill:none;}
	.st1{fill:#06BAFF;}
	.st2{fill:#292827;}
</style>
<g>
	<path class="st0" d="M221,285.5c-31-4.7-105.5-74.2-113.3-113.3c-2.5-12.6,1.1-22.8,4-29.5L36.3,67.3c-0.2,0.1-28.8,29.7,6.2,94.9
		c11.3,21.1,40.7,71,80.3,110.4c38.8,38.7,87.7,67,108.3,78.2c65.1,35.1,94.7,6.4,94.9,6.2l-75.4-75.4
		C243.8,284.4,236.4,287.9,221,285.5z"/>
	<polygon class="st1" points="269.6,266.7 342.9,340 363,320 279.8,256.5 	"/>
	<polygon class="st1" points="53.2,50.4 126.6,123.7 136.7,113.5 73.3,30.3 	"/>
	<path class="st2" d="M286,231.1c-4.8-3.6-11.5-3.2-15.8,1.1l-25.5,25.5c-25.9,25.9-73-28.6-76.9-32.2c-3.5-4-56.4-52.7-32.2-76.9
		l25.5-25.5c4.3-4.3,4.7-11,1.1-15.8L83.9,4.7C81.8,2,78.6,0.3,75.2,0c-3.5-0.2-6.8,1-9.3,3.5L20.5,48.8c-6.4,7.4-43.3,41,0.7,124.5
		c30.3,57.5,65,95.7,84.3,114.4c18.7,19.3,56.9,54,114.4,84.3c83.5,44,117.2,7.1,124.5,0.7l45.3-45.3c2.4-2.4,3.7-5.8,3.5-9.3
		c-0.2-3.5-1.9-6.6-4.7-8.7L286,231.1z M126.6,123.7L53.2,50.4l20-20l63.5,83.2L126.6,123.7z M325.9,357
		c-0.1,0.2-29.8,28.8-94.9-6.2c-20.7-11.1-69.5-39.4-108.3-78.2c-39.5-39.4-68.9-89.4-80.3-110.4c-35.1-65.1-6.4-94.7-6.2-94.9
		l75.4,75.4c-2.8,6.7-6.5,16.9-4,29.5c7.8,39.1,82.3,108.6,113.3,113.3c15.4,2.3,22.8-1.1,29.5-4L325.9,357z M342.9,340l-73.3-73.3
		l10.2-10.2L363,320L342.9,340z"/>
	<g>
		<g>
			<path class="st0" d="M286.9,18.3c-47.1,0-85.4,38.3-85.4,85.4c0,47.1,38.3,85.4,85.4,85.4s85.4-38.3,85.4-85.4
				C372.3,56.6,334,18.3,286.9,18.3z M285.4,31.2c11.6,0,21,9.4,21,21c0,11.6-9.4,21-21,21c-11.6,0-21-9.4-21-21
				S273.8,31.2,285.4,31.2z M326.1,170.5c0,3.1-2.5,5.7-5.7,5.7h-64c-3.1,0-5.7-2.5-5.7-5.7v-21.5c0-3.1,2.5-5.7,5.7-5.7h10.9v-36
				h-14c-3.1,0-5.7-2.5-5.7-5.7V84.1c0-3.1,2.5-5.7,5.7-5.7h50.3c3.1,0,5.7,2.5,5.7,5.7v59.3h11.2c3.1,0,5.7,2.5,5.7,5.7
				L326.1,170.5L326.1,170.5z"/>
			<path class="st1" d="M285.4,61.9c5.3,0,9.7-4.3,9.7-9.7c0-5.3-4.3-9.7-9.7-9.7c-5.3,0-9.7,4.3-9.7,9.7
				C275.7,57.5,280.1,61.9,285.4,61.9z"/>
			<path class="st1" d="M298,149.1V89.7h-39v6.4h14c3.1,0,5.7,2.5,5.7,5.7v47.3c0,3.1-2.5,5.7-5.7,5.7h-10.9v10.2h52.7v-10.2h-11.2
				C300.5,154.7,298,152.2,298,149.1z"/>
			<path class="st2" d="M286.9,7c-53.3,0-96.7,43.4-96.7,96.7c0,53.3,43.4,96.7,96.7,96.7s96.7-43.4,96.7-96.7S340.2,7,286.9,7z
				 M286.9,189.1c-47.1,0-85.4-38.3-85.4-85.4c0-47.1,38.3-85.4,85.4-85.4s85.4,38.3,85.4,85.4C372.3,150.8,334,189.1,286.9,189.1z"
				/>
			<path class="st2" d="M285.4,73.2c11.6,0,21-9.4,21-21c0-11.6-9.4-21-21-21c-11.6,0-21,9.4-21,21
				C264.4,63.8,273.8,73.2,285.4,73.2z M285.4,42.5c5.3,0,9.7,4.3,9.7,9.7c0,5.3-4.3,9.7-9.7,9.7c-5.3,0-9.7-4.3-9.7-9.7
				S280.1,42.5,285.4,42.5z"/>
			<path class="st2" d="M320.5,143.4h-11.2V84.1c0-3.1-2.5-5.7-5.7-5.7h-50.3c-3.1,0-5.7,2.5-5.7,5.7v17.7c0,3.1,2.5,5.7,5.7,5.7h14
				v36h-10.9c-3.1,0-5.7,2.5-5.7,5.7v21.5c0,3.1,2.5,5.7,5.7,5.7h64c3.1,0,5.7-2.5,5.7-5.7v-21.5
				C326.1,145.9,323.6,143.4,320.5,143.4z M314.8,164.9h-52.7v-10.2H273c3.1,0,5.7-2.5,5.7-5.7v-47.3c0-3.1-2.5-5.7-5.7-5.7h-14
				v-6.4h39v59.3c0,3.1,2.5,5.7,5.7,5.7h11.2L314.8,164.9L314.8,164.9z"/>
		</g>
	</g>
</g>
</svg>
