<svg id="Capa_1" data-name="Capa 1" xmlns="http://www.w3.org/2000/svg" viewBox="0 0 446.16 444.16"><title>shipping</title><polygon points="47.85 202.2 221.22 165.11 395.26 202.2 395.26 254.74 221.22 212.71 47.85 254.74 47.85 202.2" style="fill:#06baff"/><polygon points="139.66 80.99 139.66 113.03 301.18 114.03 301.18 79.88 139.66 80.99" style="fill:#06baff"/><path d="M441.44,429.7c-5.75-2.64-32-26.67-48.83-26.67-13,0-35,25.92-44.47,25.92-0.68,0-1.37-.09-2.06-0.15l62.79-168.33v0h0v0a8.14,8.14,0,0,0,.5-2.92l-0.81-55.14a8.1,8.1,0,0,0-6.3-7.78l-57.6-13.13V117a5.4,5.4,0,0,0-5.4-5.4H317.08V74.17a5.4,5.4,0,0,0-5.4-5.4H250.07V27.57A26,26,0,0,0,241.7,8.44,27.9,27.9,0,0,0,221.22,1a27.87,27.87,0,0,0-20.47,7.4,26,26,0,0,0-8.37,19.14V68.77H130.77a5.4,5.4,0,0,0-5.4,5.4v37.42H103.18a5.4,5.4,0,0,0-5.4,5.4v64.47L40.18,194.59a8.1,8.1,0,0,0-6.3,7.78l-0.81,55.14a8.15,8.15,0,0,0,.4,2.65v0h0v0h0v0h0v0h0v0h0v0h0v0h0v0h0v0h0v0h0v0h0v0h0v0L96.35,428.75a22.56,22.56,0,0,1-2.62.2C84.54,429,64.26,403,51.25,403c-16.82,0-40.83,24-46.54,26.68a8.1,8.1,0,1,0,6.79,14.71c6.77-3.12,27.73-25.18,39.75-25.18,8.34,0,28.62,25.93,42.48,25.93a41.94,41.94,0,0,0,13-2.19c0.2,0,.38.09,0.58,0.09a8.08,8.08,0,0,0,2.83-.51,7.94,7.94,0,0,0,2.92-2,140.55,140.55,0,0,0,16.71-9.6c9.44-6,18.36-11.7,27.4-11.7S175.38,425,185,431c11,6.94,22.38,14.12,35.85,14.12,13.63,0,24.76-7.58,34.58-14.27,8.8-6,17.11-11.66,26.08-11.66,9.13,0,18.69,5.7,28.82,11.73,6.41,3.82,13,7.67,19.84,10.41A7.88,7.88,0,0,0,335,443a44.82,44.82,0,0,0,13.12,2.11c14.18,0,36.14-25.92,44.47-25.92,12.09,0,35.27,22.07,42.06,25.19A8.1,8.1,0,0,0,441.44,429.7ZM208.13,31.76a13.16,13.16,0,0,1,3.6-9.14A11.45,11.45,0,0,1,221,19a3.39,3.39,0,0,0,.5,0,11.36,11.36,0,0,1,9.24,3.63,13.16,13.16,0,0,1,3.6,9.14v36.9H208.13V31.76h0ZM141.27,84.88H301.18v26.81H141.27V84.88h0Zm-28.85,41H330V180.5L223.75,156.26a26.3,26.3,0,0,0-5,0L112.42,180.5V125.83h0ZM55.83,209.46l165.39-37.71,165.39,37.71,0.55,37L223.09,206.21c-0.1,0-.19,0-0.29,0a7.61,7.61,0,0,0-.83-0.12c-0.25,0-.5,0-0.74,0s-0.5,0-.75,0a8,8,0,0,0-.8.11c-0.11,0-.21,0-0.32,0L55.29,246.45ZM159.37,396.89c-13.3,0-24.27,7-34.88,13.76-3.12,2-6.18,3.92-9.21,5.63L57.72,262,216,223.15V421.32c-6.93-1.53-14-5.94-21.41-10.62C183.83,403.91,172.7,396.89,159.37,396.89Zm120.1,0c-13.49,0-24.39,7.42-34,14-6.48,4.41-12.68,8.6-19,10.28v-198L384.73,262,326.91,417c-3.79-1.92-7.65-4.2-11.6-6.55C304.15,403.76,292.59,396.89,279.47,396.89Z" transform="translate(0 -1)" style="fill:#010002"/><path d="M267.81,248.51a17.37,17.37,0,1,0,17.36,17.37A17.39,17.39,0,0,0,267.81,248.51Zm0,24.3a6.93,6.93,0,1,1,6.93-6.93A6.94,6.94,0,0,1,267.81,272.81Z" transform="translate(0 -1)" style="fill:#010002"/></svg>