<svg id="Capa_1" data-name="Capa 1" xmlns="http://www.w3.org/2000/svg" viewBox="0 0 359.22 394.75"><title>star</title><path d="M230.9,109.76L196,39.11l-34.87,70.64a12,12,0,0,1-9,6.56l-78,11.33,56.41,55A12,12,0,0,1,134,193.26L120.72,270.9l69.73-36.66a12,12,0,0,1,11.17,0l69.73,36.66L258,193.26a12,12,0,0,1,3.45-10.62l56.41-55-78-11.33A12,12,0,0,1,230.9,109.76Z" transform="translate(-17.76)" style="fill:#06baff"/><path d="M355.09,115.56a12,12,0,0,0-9.69-8.17L249.63,93.48,206.79,6.69a12,12,0,0,0-21.52,0L142.44,93.48,46.66,107.4A12,12,0,0,0,40,127.87l69.31,67.56L93,290.81a12,12,0,0,0,17.41,12.65l85.67-45,85.67,45a12,12,0,0,0,17.41-12.65l-16.36-95.39,69.31-67.56A12,12,0,0,0,355.09,115.56Zm-93.61,67.07A12,12,0,0,0,258,193.26l13.32,77.65-69.73-36.66a12,12,0,0,0-11.17,0L120.72,270.9,134,193.26a12,12,0,0,0-3.45-10.62l-56.41-55,78-11.33a12,12,0,0,0,9-6.56L196,39.11l34.86,70.64a12,12,0,0,0,9,6.56l78,11.33Z" transform="translate(-17.76)" style="fill:#292827"/><path d="M29.76,177.84a12,12,0,0,0-12,12V382.75a12,12,0,0,0,24,0V189.84A12,12,0,0,0,29.76,177.84Z" transform="translate(-17.76)" style="fill:#292827"/><path d="M365,177.84a12,12,0,0,0-12,12V382.75a12,12,0,1,0,24,0V189.84A12,12,0,0,0,365,177.84Z" transform="translate(-17.76)" style="fill:#292827"/><path d="M280.51,324.36a12,12,0,0,0-12,12v46.39a12,12,0,0,0,24,0V336.36A12,12,0,0,0,280.51,324.36Z" transform="translate(-17.76)" style="fill:#292827"/><path d="M196,286.71a12,12,0,0,0-12,12v84a12,12,0,0,0,24,0v-84A12,12,0,0,0,196,286.71Z" transform="translate(-17.76)" style="fill:#292827"/><path d="M111.55,324.36a12,12,0,0,0-12,12v46.39a12,12,0,0,0,24,0V336.36A12,12,0,0,0,111.55,324.36Z" transform="translate(-17.76)" style="fill:#292827"/></svg>