<svg id="telephone" xmlns="http://www.w3.org/2000/svg" viewBox="0 0 393.28 393.29"><title>Contact</title><path d="M221,285.5c-31-4.7-105.5-74.2-113.3-113.3-2.5-12.6,1.1-22.8,4-29.5L36.3,67.3c-0.2.1-28.8,29.7,6.2,94.9,11.3,21.1,40.7,71,80.3,110.4,38.8,38.7,87.7,67,108.3,78.2,65.1,35.1,94.7,6.4,94.9,6.2l-75.4-75.4C243.8,284.4,236.4,287.9,221,285.5Z" transform="translate(0.06 0.02)" class="background"/><polygon points="269.66 266.72 342.96 340.02 363.06 320.02 279.86 256.52 269.66 266.72" class="filler"/><polygon points="53.26 50.42 126.66 123.72 136.76 113.52 73.36 30.32 53.26 50.42" class="filler"/><path d="M286,231.1a12,12,0,0,0-15.8,1.1l-25.5,25.5c-25.9,25.9-73-28.6-76.9-32.2-3.5-4-56.4-52.7-32.2-76.9l25.5-25.5a12,12,0,0,0,1.1-15.8L83.9,4.7A12.45,12.45,0,0,0,75.2,0a12,12,0,0,0-9.3,3.5L20.5,48.8c-6.4,7.4-43.3,41,.7,124.5,30.3,57.5,65,95.7,84.3,114.4,18.7,19.3,56.9,54,114.4,84.3,83.5,44,117.2,7.1,124.5.7l45.3-45.3a12.2,12.2,0,0,0,3.5-9.3,11.59,11.59,0,0,0-4.7-8.7ZM126.6,123.7L53.2,50.4l20-20,63.5,83.2ZM325.9,357c-0.1.2-29.8,28.8-94.9-6.2-20.7-11.1-69.5-39.4-108.3-78.2-39.5-39.4-68.9-89.4-80.3-110.4C7.3,97.1,36,67.5,36.2,67.3l75.4,75.4c-2.8,6.7-6.5,16.9-4,29.5,7.8,39.1,82.3,108.6,113.3,113.3,15.4,2.3,22.8-1.1,29.5-4Zm17-17-73.3-73.3,10.2-10.2L363,320Z" transform="translate(0.06 0.02)" class="lines"/></svg>


