<?xml version="1.0" encoding="utf-8"?>
<!-- Generator: Adobe Illustrator 19.2.0, SVG Export Plug-In . SVG Version: 6.00 Build 0)  -->
<svg version="1.1" id="Capa_1" xmlns="http://www.w3.org/2000/svg" xmlns:xlink="http://www.w3.org/1999/xlink" x="0px" y="0px"
	 viewBox="0 0 415.9 415.9" style="enable-background:new 0 0 415.9 415.9;" xml:space="preserve">
<style type="text/css">
	.st0{fill:#06BAFF;}
	.st1{fill:#292827;}
</style>
<g>
	<g>
		<path class="st0" d="M172.7,243.4c-2.2,2.6-5.3,4.1-8.7,4.3c-3.4,0.1-6.6-1.1-9-3.5l-32.2-32.2h-81l121,116L377.4,82.5h-69
			L172.7,243.4z"/>
		<path class="st1" d="M414.8,65.6c-1.9-4.3-6.2-7-10.9-7h-101c-3.5,0-6.9,1.6-9.2,4.3L162.8,217.9l-26.5-26.5
			c-2.3-2.3-5.3-3.5-8.5-3.5H12c-4.9,0-9.3,3-11.1,7.5c-1.8,4.5-0.7,9.7,2.8,13.1L155.3,354c2.2,2.1,5.2,3.3,8.3,3.3
			c0.2,0,0.4,0,0.5,0c3.3-0.1,6.4-1.6,8.5-4.1L412.9,78.4C416,74.9,416.7,69.9,414.8,65.6z M162.8,328l-121-116h81l32.2,32.2
			c2.4,2.4,5.6,3.6,9,3.5c3.4-0.1,6.5-1.7,8.7-4.3L308.4,82.5h69L162.8,328z"/>
	</g>
</g>
</svg>
