<?xml version="1.0" encoding="utf-8"?>
<!-- Generator: Adobe Illustrator 19.2.0, SVG Export Plug-In . SVG Version: 6.00 Build 0)  -->
<svg version="1.1" id="Capa_1" xmlns="http://www.w3.org/2000/svg" xmlns:xlink="http://www.w3.org/1999/xlink" x="0px" y="0px"
	 viewBox="0 0 512 512" style="enable-background:new 0 0 512 512;" xml:space="preserve">
<style type="text/css">
	.st0{fill:#F1F3F6;}
</style>
<g>
	<g>
		<path class="st0" d="M395.6,81.5V34.9c0-12.8-10.4-23.2-23.3-23.2c-12.8,0-23.3,10.4-23.3,23.2v46.6c0,12.8,10.4,23.2,23.3,23.2
			C385.2,104.7,395.6,94.3,395.6,81.5z"/>
		<rect x="46.5" y="151.3" class="st0" width="418.9" height="23.3"/>
		<path class="st0" d="M145.5,104.7c9.6,0,17.5-7.8,17.5-17.5V29.1c0-9.7-7.8-17.5-17.5-17.5h-11.6c-9.6,0-17.5,7.8-17.5,17.5v58.1
			c0,9.7,7.8,17.5,17.5,17.5H145.5z"/>
		<rect x="186.2" y="58.2" class="st0" width="139.6" height="23.3"/>
		<path class="st0" d="M209.5,430.5V244.4h-18.7c-3.4,12.6-8.4,20.7-15.2,24c-6.8,3.4-18.8,5.8-35.9,7.3v15.8h47.1v139.1
			L209.5,430.5L209.5,430.5z"/>
		<path class="st0" d="M0,477.1c0,23.3,25.6,23.3,25.6,23.3h463.1c0,0,23.3,0,23.3-23.3V58.2h-93.1v23.3h69.8v395.6H23.3V81.5h69.8
			V58.2H0V477.1z"/>
		<path class="st0" d="M359.3,269.8C355,261.4,357.3,265.8,359.3,269.8L359.3,269.8z"/>
		<path class="st0" d="M313.7,244.4c-24.2,0-41,13.8-50.3,41.3c-5,14.8-7.4,32.4-7.4,53c0,26.6,4.1,47.8,12.4,63.5
			c9.9,18.9,25,28.3,45.2,28.3c22.5,0,38.6-11.6,48.5-34.7c6.8-16.1,10.2-36.5,10.2-61.1c0-26-3.8-46.5-11.3-61.4
			C351.3,254,335.5,244.4,313.7,244.4z M339.4,392.1c-6.4,10.1-15.1,15.1-26,15.1c-13.5,0-23.1-8.3-28.7-24.8
			c-3.7-10.8-5.5-25.1-5.5-42.9c0-23.7,2.9-41.6,8.6-53.7c5.7-12.2,14.8-18.2,27.1-18.2c13.5,0,22.5,6.4,27.2,19.2
			c4.7,12.8,7,29.1,7,49C349.1,363.3,345.9,382.1,339.4,392.1z"/>
	</g>
</g>
</svg>
