<?xml version="1.0" encoding="utf-8"?>
<!-- Generator: Adobe Illustrator 19.2.0, SVG Export Plug-In . SVG Version: 6.00 Build 0)  -->
<svg version="1.1" id="Capa_1" xmlns="http://www.w3.org/2000/svg" xmlns:xlink="http://www.w3.org/1999/xlink" x="0px" y="0px"
	 viewBox="0 0 410.6 410.6" style="enable-background:new 0 0 410.6 410.6;" xml:space="preserve">
<style type="text/css">
	.st0{fill:none;}
	.st1{fill:#292827;}
	.st2{fill:#06BAFF;stroke:#000000;stroke-width:16;stroke-miterlimit:10;}
</style>
<g>
	<g>
		<path class="st0" d="M205.3,24C105.3,24,24,105.3,24,205.3s81.3,181.3,181.3,181.3s181.3-81.3,181.3-181.3S305.2,24,205.3,24z
			 M202.1,51.4c24.6,0,44.5,20,44.5,44.5c0,24.6-20,44.5-44.5,44.5c-24.6,0-44.5-20-44.5-44.5C157.5,71.4,177.5,51.4,202.1,51.4z
			 M288.5,347.1c0,6.6-5.4,12-12,12H140.6c-6.6,0-12-5.4-12-12v-45.6c0-6.6,5.4-12,12-12h23.1v-76.4H134c-6.6,0-12-5.4-12-12v-37.5
			c0-6.6,5.4-12,12-12h106.7c6.6,0,12,5.4,12,12v126h23.7c6.6,0,12,5.4,12,12L288.5,347.1L288.5,347.1z"/>
		<path class="st1" d="M205.3,0C92.1,0,0,92.1,0,205.3s92.1,205.3,205.3,205.3s205.3-92.1,205.3-205.3S318.5,0,205.3,0z
			 M205.3,386.6c-100,0-181.3-81.3-181.3-181.3S105.3,24,205.3,24s181.3,81.3,181.3,181.3C386.6,305.2,305.2,386.6,205.3,386.6z"/>
	</g>
</g>
<g>
	<path class="st2" d="M147,290.4V125.2c0-2.5-2.1-4.6-4.6-4.6h-22.7c-2.5,0-4.6-2.1-4.6-4.6V96.1c0-2.5,2.1-4.6,4.6-4.6h89.9
		c19.7,0,35.4,1.5,47,4.6c11.6,3.1,21.2,9.5,28.8,19.4c7.6,9.9,11.4,22.2,11.4,36.9c0,29-14.2,47.9-42.7,56.6
		c-2.7,0.8-4,3.9-2.8,6.4l37.4,77c0.8,1.6,2.4,2.6,4.2,2.6h20.9c2.5,0,4.6,2.1,4.6,4.6v19.9c0,2.5-2.1,4.6-4.6,4.6h-42.9
		c-1.8,0-3.4-1-4.2-2.6L216.2,218c-0.8-1.6-2.4-2.6-4.2-2.6h-25.3c-2.5,0-4.6,2.1-4.6,4.6v70.4c0,2.5,2.1,4.6,4.6,4.6h20.5
		c2.5,0,4.6,2.1,4.6,4.6v19.9c0,2.5-2.1,4.6-4.6,4.6h-87.6c-2.5,0-4.6-2.1-4.6-4.6v-19.9c0-2.5,2.1-4.6,4.6-4.6h22.7
		C145,295,147,292.9,147,290.4z M182.1,186.3h27.4c13.3,0,23-0.9,29.3-2.6c6.3-1.7,11.5-5.2,15.5-10.5c4-5.3,6-12.4,6-21.3
		c0-7.6-2-14-6.1-19.2c-4.1-5.2-9.1-8.6-15-9.9c-6-1.4-15.1-2.1-27.3-2.1h-29.8V186.3z"/>
</g>
</svg>
