<svg id="Capa_1" data-name="Capa 1" xmlns="http://www.w3.org/2000/svg" viewBox="0 0 431.43 410.59"><title>training</title><path d="M70.93,283.62a1.55,1.55,0,0,0,1.55,1.55H358.95a1.55,1.55,0,0,0,1.55-1.55v-199H70.93v199ZM321.48,107.26a12,12,0,1,1-3.51,8.49A12.11,12.11,0,0,1,321.48,107.26Zm-228,140.58,81.82-72.22a12,12,0,0,1,16,.09l31.14,28.1,72.2-70A12,12,0,1,1,311.37,151l-80.26,77.86a12,12,0,0,1-16.39.3l-31.53-28.44L109.4,265.83A12,12,0,0,1,93.52,247.84Z" transform="translate(0 -10.42)" style="fill:none"/><path d="M405.88,34.42H25.55A1.55,1.55,0,0,0,24,36V59.08a1.55,1.55,0,0,0,1.55,1.55H405.88a1.55,1.55,0,0,0,1.55-1.55V36A1.55,1.55,0,0,0,405.88,34.42Z" transform="translate(0 -10.42)" style="fill:#06baff"/><path d="M405.88,10.42H25.55A25.58,25.58,0,0,0,0,36V59.08A25.58,25.58,0,0,0,25.55,84.63H46.93v199a25.58,25.58,0,0,0,25.55,25.55H203.71V366L86.3,397.42A12,12,0,1,0,92.5,420.6l122.74-32.86,0.48,0,0.48,0L338.93,420.6a12,12,0,0,0,6.21-23.18L227.71,366V309.17H358.94a25.58,25.58,0,0,0,25.55-25.55v-199h21.39a25.58,25.58,0,0,0,25.55-25.55V36A25.58,25.58,0,0,0,405.88,10.42Zm1.55,48.67a1.55,1.55,0,0,1-1.55,1.55H25.55A1.55,1.55,0,0,1,24,59.08V36a1.55,1.55,0,0,1,1.55-1.55H405.88A1.55,1.55,0,0,1,407.43,36V59.08ZM360.49,283.62a1.55,1.55,0,0,1-1.55,1.55H72.48a1.55,1.55,0,0,1-1.55-1.55v-199H360.49v199h0Z" transform="translate(0 -10.42)" style="fill:#092827"/><path d="M101.46,268.84a12,12,0,0,0,7.94-3l73.79-65.14,31.53,28.44a12,12,0,0,0,16.39-.3L311.37,151a12,12,0,1,0-16.71-17.23l-72.2,70-31.14-28.1a12,12,0,0,0-16-.09L93.52,247.84A12,12,0,0,0,101.46,268.84Z" transform="translate(0 -10.42)" style="fill:#292827"/><path d="M330,127.75a12,12,0,1,0-8.49-3.52A12,12,0,0,0,330,127.75Z" transform="translate(0 -10.42)" style="fill:#292827"/></svg>