<svg id="twitter" xmlns="http://www.w3.org/2000/svg" viewBox="0 0 512 415.89"><title>twitter</title><path d="M512,97.26a209.75,209.75,0,0,1-60.31,16.54,105.47,105.47,0,0,0,46.17-58.07,211.74,211.74,0,0,1-66.74,25.5,105.11,105.11,0,0,0-179,95.76A298.19,298.19,0,0,1,35.67,67.25a105.15,105.15,0,0,0,32.51,140.2A105,105,0,0,1,20.6,194.27v1.31a105.14,105.14,0,0,0,84.24,103,106.39,106.39,0,0,1-27.67,3.68,100.81,100.81,0,0,1-19.77-2,105.09,105.09,0,0,0,98.09,72.95A210.73,210.73,0,0,1,25.05,418.13,223.22,223.22,0,0,1,0,416.69a296.89,296.89,0,0,0,161,47.26c193.21,0,298.82-160,298.82-298.82l-0.35-13.6A209.74,209.74,0,0,0,512,97.26Z" transform="translate(0 -48.06)" class="filler"/></svg>