<?xml version="1.0" encoding="utf-8"?>
<!-- Generator: Adobe Illustrator 19.2.0, SVG Export Plug-In . SVG Version: 6.00 Build 0)  -->
<svg version="1.1" id="Layer_1" xmlns="http://www.w3.org/2000/svg" xmlns:xlink="http://www.w3.org/1999/xlink" x="0px" y="0px"
	 viewBox="0 0 512 512" style="enable-background:new 0 0 512 512;" xml:space="preserve">
<style type="text/css">
	.st0{fill:#06BAFF;}
</style>
<path class="st0" d="M29,190c0,0,45-148,222-148s234,155.9,234,155.9S416,161,376,202c-35-16-94-21-119-4c-75-18-75-7-117,16.7
	C102.5,191.3,29,190,29,190z"/>
<g>
	<path d="M264.3,27.1V11h-20.9v16.2C113.8,32.8,11,124.2,11,234.7v2.1l16.7-1.1c0-21.3,21.9-38.4,48-38.4c27.1,0,49,18.1,49,39.4
		h20.9c0-22.4,21.9-39.4,49-39.4s44,18.1,44,39.4v203.4c0,34.1,31.1,64.7,63.4,64.7s62.4-30.6,62.4-64.7h-28.9
		c0,21.3-12.7,35.4-33.5,35.4s-32.5-14.1-32.5-35.4V236.5c0.2-22.2,17-39.1,44-39.1c27.1,0,49,18.1,49,39.4h20.9
		c0-22.4,21.9-39.4,49-39.4c26.1,0,48,17,48,38.4H501v-1.1C501,123,396,30.8,264.3,27.1L264.3,27.1z M431.1,170.1
		c-24,0-45.9,9.7-58.4,26.8c-11.5-17-33.4-26.8-58.4-26.8c-24,0-45.9,9.7-59.4,27.8c-11.5-17-33.4-26.8-58.4-26.8
		c-24,0-45.9,9.7-58.4,26.8c-11.5-17-33.4-26.8-58.4-26.8c-15.6,0-24.2,2.3-35.7,9.7C81,108,150.6,53.2,254.9,53.2
		S431,100,466.8,179.8C455.4,172.4,446.8,170.1,431.1,170.1z"/>
</g>
</svg>
