<svg xmlns="http://www.w3.org/2000/svg" viewBox="0 0 423.42 350.36"><title>video</title><path d="M232.1,171.35a55.41,55.41,0,1,0-55.42-55.41A55.47,55.47,0,0,0,232.1,171.35Z" transform="translate(0 -36.53)" style="fill:none"/><path d="M127.32,179.23H184.2a79.64,79.64,0,0,1-28.44-41.48A79.65,79.65,0,0,1,127.32,179.23Z" transform="translate(0 -36.53)" style="fill:none"/><path d="M79.41,171.35A55.41,55.41,0,1,0,24,115.94,55.47,55.47,0,0,0,79.41,171.35Z" transform="translate(0 -36.53)" style="fill:none"/><path d="M24,351.48H305.38V203.23H24V351.48Z" transform="translate(0 -36.53)" style="fill:none"/><rect x="94.13" y="227.36" width="58.92" height="36.59" style="fill:#06baff"/><polygon points="329.38 282.54 399.42 318.67 399.42 162.98 329.38 199.11 329.38 282.54" style="fill:#06baff"/><path d="M82.13,324.48H165a12,12,0,0,0,12-12V251.89a12,12,0,0,0-12-12H82.13a12,12,0,0,0-12,12v60.59A12,12,0,0,0,82.13,324.48Zm12-60.59H153v36.59H94.13V263.89Z" transform="translate(0 -36.53)" style="fill:#292827"/><path d="M417.66,169.57a12,12,0,0,0-11.74-.42l-76.54,39.48v-17.4a12,12,0,0,0-12-12H280a79.39,79.39,0,1,0-124.25-85.1,79.4,79.4,0,1,0-124.25,85.1H12a12,12,0,0,0-12,12V363.48a12,12,0,0,0,12,12H317.38a12,12,0,0,0,12-12v-17.4l76.54,39.48a12,12,0,0,0,17.5-10.66V179.81A12,12,0,0,0,417.66,169.57ZM232.1,60.53a55.41,55.41,0,1,1-55.42,55.41A55.47,55.47,0,0,1,232.1,60.53Zm-47.9,118.7H127.32a79.64,79.64,0,0,0,28.44-41.48A79.65,79.65,0,0,0,184.2,179.23ZM24,115.94a55.41,55.41,0,1,1,55.41,55.41A55.48,55.48,0,0,1,24,115.94ZM305.38,228.32V351.48H24V203.23H305.38v25.1Zm94,126.88-70-36.13V235.64l70-36.13V355.2h0Z" transform="translate(0 -36.53)" style="fill:#292827"/></svg>